<svg xmlns="http://www.w3.org/2000/svg" xmlns:xlink="http://www.w3.org/1999/xlink" width="315.404" height="577.342" viewBox="0 0 315.404 577.342">
  <defs>
    <filter id="Body" x="0" y="0" width="315.404" height="577.342" filterUnits="userSpaceOnUse">
      <feOffset input="SourceAlpha"/>
      <feGaussianBlur stdDeviation="9" result="blur"/>
      <feFlood flood-opacity="0.161"/>
      <feComposite operator="in" in2="blur"/>
      <feComposite in="SourceGraphic"/>
    </filter>
  </defs>
  <g transform="matrix(1, 0, 0, 1, 0, 0)" filter="url(#Body)">
    <path id="Body-2" data-name="Body" d="M26.4,523.342a24,24,0,0,1-24-24V176.833A1.581,1.581,0,0,1,0,175.479V143.191a1.582,1.582,0,0,1,2.4-1.353v-8.514A1.582,1.582,0,0,1,0,131.97V99.02a1.581,1.581,0,0,1,2.4-1.354V82.847A1.582,1.582,0,0,1,0,81.494V65.556A1.582,1.582,0,0,1,2.4,64.2V24a24,24,0,0,1,24-24H235.774a24,24,0,0,1,24,24v85h.05a1.58,1.58,0,0,1,1.579,1.579v57.962a1.58,1.58,0,0,1-1.579,1.579h-.05V499.342a24,24,0,0,1-24,24Z" transform="translate(27 27)" fill="#fff"/>
  </g>
</svg>
