<svg xmlns="http://www.w3.org/2000/svg" xmlns:xlink="http://www.w3.org/1999/xlink" width="473.885" height="346.996" viewBox="0 0 473.885 346.996">
  <defs>
    <linearGradient id="linear-gradient" x1="0.5" y1="1" x2="0.5" gradientUnits="objectBoundingBox">
      <stop offset="0" stop-color="#fff" stop-opacity="0.431"/>
      <stop offset="1" stop-color="#fff" stop-opacity="0"/>
    </linearGradient>
    <linearGradient id="linear-gradient-2" x1="0.5" x2="0.5" y2="1" gradientUnits="objectBoundingBox">
      <stop offset="0" stop-color="#17d29a" stop-opacity="0.51"/>
      <stop offset="1" stop-color="#17d29a" stop-opacity="0"/>
    </linearGradient>
    <linearGradient id="linear-gradient-3" x1="0.841" y1="0.533" x2="0.066" y2="0.526" gradientUnits="objectBoundingBox">
      <stop offset="0" stop-color="#582a08"/>
      <stop offset="1" stop-color="#080602"/>
    </linearGradient>
    <linearGradient id="linear-gradient-4" x1="0.841" y1="0.533" x2="0.066" y2="0.526" gradientUnits="objectBoundingBox">
      <stop offset="0" stop-color="#f56e28"/>
      <stop offset="1" stop-color="#fdb940"/>
    </linearGradient>
    <linearGradient id="linear-gradient-6" x1="0.5" x2="0.5" y2="1" gradientUnits="objectBoundingBox">
      <stop offset="0" stop-color="#5c2d91"/>
      <stop offset="1" stop-color="#2e1749"/>
    </linearGradient>
    <linearGradient id="linear-gradient-8" x1="0.841" y1="0.533" x2="0.066" y2="0.526" gradientUnits="objectBoundingBox">
      <stop offset="0" stop-color="#1e1c57"/>
      <stop offset="1" stop-color="#5c2d91"/>
    </linearGradient>
    <filter id="Ellipse_2210" x="163.184" y="91.005" width="77" height="78" filterUnits="userSpaceOnUse">
      <feOffset dy="1" input="SourceAlpha"/>
      <feGaussianBlur stdDeviation="6" result="blur"/>
      <feFlood flood-opacity="0.078"/>
      <feComposite operator="in" in2="blur"/>
      <feComposite in="SourceGraphic"/>
    </filter>
    <linearGradient id="linear-gradient-10" x1="0.841" y1="0.533" x2="0.066" y2="0.526" gradientUnits="objectBoundingBox">
      <stop offset="0"/>
      <stop offset="1" stop-color="#5c2d91"/>
    </linearGradient>
  </defs>
  <g id="Group_21212" data-name="Group 21212" transform="translate(-21702.701 14810.005)">
    <path id="Path_12849" data-name="Path 12849" d="M91.981,156.207,10.69,78.335s-24.053-52.876,0-70.5,96.21,0,96.21,0l34.339,98.783-30.119,3.99-10.356,23.612Z" transform="translate(21945.273 -14544.725) rotate(172)" opacity="0.453" fill="url(#linear-gradient)"/>
    <text id="_16_768.00" data-name="16,768.00" transform="translate(21790.676 -14607.48)" fill="#fff" font-size="24" font-family="Manrope-Light, Manrope" font-weight="300" opacity="0.4"><tspan x="0" y="0">16,768.00</tspan></text>
    <path id="Path_12852" data-name="Path 12852" d="M21657.391-14457.879c3.836-7.46,28.951-49.238,61.738-56.605s72.838,56.606,116.223-14.267,80.264-156.2,123.146-139.507,88.506-81.5,88.506-81.5" transform="translate(116.023 -37.113)" fill="none" stroke="#00ce90" stroke-width="4"/>
    <path id="Polygon_36" data-name="Polygon 36" d="M9.488,0l9.488,18.976H0Z" transform="matrix(0.883, 0.469, -0.469, 0.883, 22159.83, -14805.265)" fill="#0bd095"/>
    <g id="Group_19738" data-name="Group 19738" transform="translate(21706.701 -14810.005)">
      <path id="Polygon_33" data-name="Polygon 33" d="M11.224,3.039a2,2,0,0,1,3.473,0l9.514,16.65a2,2,0,0,1-1.736,2.992H3.446A2,2,0,0,1,1.71,19.689Z" transform="translate(338.265 0) rotate(1)" fill="#fdb940"/>
      <path id="Polygon_34" data-name="Polygon 34" d="M6.867,3.191a2,2,0,0,1,3.506,0l5.239,9.538a2,2,0,0,1-1.753,2.963H3.38a2,2,0,0,1-1.753-2.963Z" transform="translate(380.785 46.52) rotate(-3)" fill="#fdb940"/>
      <path id="Path_12853" data-name="Path 12853" d="M21657.391-14457.657c3.811-7.46,28.75-49.238,61.311-56.605s72.334,56.606,115.414-14.267,79.709-156.2,122.293-139.507c38.287,15.006,87.9-80.559,87.9-80.559v322.921h-386.916" transform="translate(-21587.541 14772.67)" opacity="0.3" fill="url(#linear-gradient-2)"/>
      <g id="Group_19737" data-name="Group 19737" transform="translate(0 185.535)">
        <ellipse id="Ellipse_2211" data-name="Ellipse 2211" cx="11.218" cy="10.847" rx="11.218" ry="10.847" transform="translate(188.394 59.844)" fill="url(#linear-gradient-3)"/>
        <g id="Group_19510" data-name="Group 19510" transform="translate(0 0)">
          <g id="Group_18535" data-name="Group 18535" transform="translate(0 25.169)">
            <g id="Intersection_9" data-name="Intersection 9" transform="translate(0 50.366)" fill="url(#linear-gradient-4)">
              <path d="M 121.8352203369141 76.06756591796875 L 119.9168548583984 76.06756591796875 L 0.07310415804386139 76.06756591796875 L -1.845295786857605 76.06756591796875 L -1.925162553787231 74.15083312988281 C -1.974812507629395 72.95918273925781 -1.999995827674866 71.74894714355469 -1.999995827674866 70.55374908447266 C -1.999995827674866 60.79758453369141 -0.3740291893482208 51.32999801635742 2.832720756530762 42.41403198242188 C 4.375987529754639 38.12313461303711 6.286770820617676 33.98348236083984 8.511970520019531 30.11006546020508 C 10.71892070770264 26.26840019226074 13.25457096099854 22.65456581115723 16.04843711853027 19.36898231506348 C 18.84728813171387 16.07754898071289 21.92867088317871 13.08801651000977 25.20700454711914 10.48343276977539 C 28.5236873626709 7.848366260528564 32.07133865356445 5.584166526794434 35.75136947631836 3.753699541091919 C 39.50651931762695 1.885882973670959 43.43772125244141 0.4509996175765991 47.43577194213867 -0.5111003518104553 C 51.5412712097168 -1.499067068099976 55.76670455932617 -2.000000476837158 59.99470520019531 -2.000000476837158 C 64.22277069091797 -2.000000476837158 68.44825744628906 -1.499067068099976 72.55381774902344 -0.5111003518104553 C 76.55191802978516 0.4509996175765991 80.48316955566406 1.885882973670959 84.23835754394531 3.753699541091919 C 87.91843414306641 5.584166526794434 91.46610260009766 7.848366260528564 94.7828369140625 10.48343276977539 C 98.06117248535156 13.08801651000977 101.1425857543945 16.07753372192383 103.9414520263672 19.36898231506348 C 106.7353515625 22.65456581115723 109.2710037231445 26.26838302612305 111.4779739379883 30.11006546020508 C 113.7031860351562 33.98346710205078 115.6139678955078 38.12311553955078 117.1572570800781 42.41401672363281 C 120.3640060424805 51.32999801635742 121.9899673461914 60.79756546020508 121.9899673461914 70.55374908447266 C 121.9899673461914 71.74909973144531 121.9647903442383 72.95933532714844 121.9151229858398 74.15086364746094 L 121.8352203369141 76.06756591796875 Z" stroke="none"/>
              <path d="M 119.9168472290039 74.06756591796875 C 119.9653244018555 72.90446472167969 119.9899673461914 71.73100280761719 119.9899673461914 70.55374145507812 C 119.9899673461914 31.58764266967773 93.12938690185547 2.958984396173037e-06 59.99470901489258 2.958984396173037e-06 C 26.86058807373047 2.958984396173037e-06 7.487793027394218e-06 31.58764266967773 7.487793027394218e-06 70.55374145507812 C 7.487793027394218e-06 71.73100280761719 0.02464748732745647 72.90446472167969 0.07310748845338821 74.06756591796875 L 119.9168472290039 74.06756591796875 M 123.7535858154297 78.06756591796875 L -3.763712406158447 78.06756591796875 L -3.923432588577271 74.23408508300781 C -3.97423243522644 73.01466369628906 -3.999992609024048 71.77642059326172 -3.999992609024048 70.55374145507812 C -3.999992609024048 60.566162109375 -2.334332466125488 50.8708610534668 0.9507474899291992 41.73714447021484 C 2.533687591552734 37.33594131469727 4.494187355041504 33.08884429931641 6.777767658233643 29.11380386352539 C 9.045467376708984 25.16640281677246 11.65194702148438 21.45186233520508 14.52482795715332 18.07338333129883 C 17.40764808654785 14.68320274353027 20.58306694030762 11.60270309448242 23.96288681030273 8.917503356933594 C 27.38898658752441 6.195522785186768 31.05552673339844 3.855682849884033 34.86066818237305 1.963002920150757 C 38.75030899047852 0.02828295901417732 42.82374572753906 -1.458357095718384 46.96784591674805 -2.455596923828125 C 51.22640609741211 -3.480376958847046 55.60928726196289 -3.999997138977051 59.99470901489258 -3.999997138977051 C 64.38018798828125 -3.999997138977051 68.76313018798828 -3.480376958847046 73.02174377441406 -2.455596923828125 C 77.16588592529297 -1.458357095718384 81.23936462402344 0.02826295979321003 85.12905120849609 1.962983012199402 C 88.93422698974609 3.855663061141968 92.60080718994141 6.195502758026123 96.02694702148438 8.917483329772949 C 99.40678405761719 11.60270309448242 102.5822296142578 14.68318271636963 105.4650650024414 18.07338333129883 C 108.3379669189453 21.45184326171875 110.944465637207 25.16638374328613 113.2121658325195 29.11378288269043 C 115.4957656860352 33.08884429931641 117.4562683105469 37.33594131469727 119.0392303466797 41.73714447021484 C 122.3242874145508 50.8708610534668 123.9899673461914 60.566162109375 123.9899673461914 70.55374145507812 C 123.9899673461914 71.77660369873047 123.9642105102539 73.01486206054688 123.9133682250977 74.23414611816406 L 123.7535858154297 78.06756591796875 Z" stroke="none" fill="#fff"/>
            </g>
            <g id="Ellipse_1870" data-name="Ellipse 1870" transform="translate(37.034 0)" stroke="#fff" stroke-width="4" fill="url(#linear-gradient-4)">
              <ellipse cx="23.331" cy="22.961" rx="23.331" ry="22.961" stroke="none"/>
              <ellipse cx="23.331" cy="22.961" rx="25.331" ry="24.961" fill="none"/>
            </g>
          </g>
          <g id="Group_20984" data-name="Group 20984" transform="translate(188.73 50.659)">
            <g id="Intersection_9-2" data-name="Intersection 9" transform="translate(0 40.049)" fill="url(#linear-gradient-6)">
              <path d="M 96.79191589355469 60.39607238769531 L 95.35311889648438 60.39607238769531 L 0.05821225419640541 60.39607238769531 L -1.380574464797974 60.39607238769531 L -1.440481066703796 58.95853805541992 C -1.479974389076233 58.01103210449219 -1.500001072883606 57.04985809326172 -1.500001072883606 56.10171127319336 C -1.500001072883606 48.35440444946289 -0.2088944166898727 40.83641815185547 2.337465524673462 33.75660705566406 C 4.801425457000732 26.90588569641113 8.331625938415527 20.75001907348633 12.82998561859131 15.46000576019287 C 15.05175876617432 12.84723281860352 17.49773216247559 10.4741792678833 20.09997177124023 8.406752586364746 C 22.73237228393555 6.31537914276123 25.5479850769043 4.518379211425781 28.46859931945801 3.065672397613525 C 34.55944061279297 0.03612571209669113 41.03186416625977 -1.499994277954102 47.70607757568359 -1.499994277954102 C 54.38009262084961 -1.499994277954102 60.85235977172852 0.03612571209669113 66.94309234619141 3.065685749053955 C 69.86365509033203 4.518379211425781 72.67921447753906 6.31537914276123 75.31156921386719 8.406765937805176 C 77.91377258300781 10.4741792678833 80.35970306396484 12.84723281860352 82.58145141601562 15.46000576019287 C 87.07977294921875 20.75003242492676 90.60993194580078 26.90589904785156 93.07387542724609 33.75661849975586 C 95.62022399902344 40.83644485473633 96.91133117675781 48.35441970825195 96.91133117675781 56.10171127319336 C 96.91133117675781 57.04952621459961 96.89130401611328 58.01068496704102 96.85181427001953 58.95851135253906 L 96.79191589355469 60.39607238769531 Z" stroke="none"/>
              <path d="M 95.35312652587891 58.89606475830078 C 95.39164733886719 57.97121810913086 95.41132354736328 57.03779983520508 95.41132354736328 56.10170745849609 C 95.41132354736328 25.11729431152344 74.05281829833984 1.609919650036318e-06 47.70608139038086 1.609919650036318e-06 C 21.35851097106934 1.609919650036318e-06 4.049917151860427e-06 25.11729431152344 4.049917151860427e-06 56.10170745849609 C 4.049917151860427e-06 57.03779983520508 0.01966558769345284 57.97121810913086 0.0582040511071682 58.89606475830078 L 95.35312652587891 58.89606475830078 M 98.23077392578125 61.89606475830078 L -2.819396018981934 61.89606475830078 L -2.939195871353149 59.02096939086914 C -2.979534387588501 58.05277252197266 -2.999995946884155 57.07058715820312 -2.999995946884155 56.10170745849609 C -2.999995946884155 48.18084716796875 -1.67910361289978 40.49206161499023 0.9259886741638184 33.24895477294922 C 3.451142549514771 26.22806358337402 7.071773052215576 19.91606330871582 11.68728065490723 14.48829364776611 C 13.9720344543457 11.80146312713623 16.4885425567627 9.360186576843262 19.16689682006836 7.232294082641602 C 21.8813419342041 5.075724601745605 24.78614234924316 3.222001552581787 27.80058860778809 1.72263240814209 C 34.1008186340332 -1.411075353622437 40.79800415039062 -2.999998331069946 47.70608139038086 -2.999998331069946 C 54.61397171020508 -2.999998331069946 61.31098937988281 -1.411075353622437 67.61111450195312 1.722647786140442 C 70.62551116943359 3.222017049789429 73.53025054931641 5.075739860534668 76.24465179443359 7.232309341430664 C 78.9229736328125 9.360201835632324 81.439453125 11.80147838592529 83.72415924072266 14.48830890655518 C 88.33963775634766 19.91609382629395 91.96022033691406 26.22807884216309 94.48535919189453 33.24895477294922 C 97.09043121337891 40.49209213256836 98.41132354736328 48.18086242675781 98.41132354736328 56.10170745849609 C 98.41132354736328 57.0702018737793 98.390869140625 58.05237197875977 98.35052490234375 59.02090835571289 L 98.23077392578125 61.89606475830078 Z" stroke="none" fill="#fff"/>
            </g>
            <g id="Ellipse_1870-2" data-name="Ellipse 1870" transform="translate(29.448 0)" stroke="#fff" stroke-width="3" fill="url(#linear-gradient-6)">
              <ellipse cx="18.552" cy="18.258" rx="18.552" ry="18.258" stroke="none"/>
              <ellipse cx="18.552" cy="18.258" rx="20.052" ry="19.758" fill="none"/>
            </g>
          </g>
          <g id="Group_18534" data-name="Group 18534" transform="translate(75.631 0)">
            <g id="Intersection_7" data-name="Intersection 7" transform="translate(0 59.441)" fill="url(#linear-gradient-8)">
              <path d="M 151.8403778076172 92.66191864013672 L 149.4449615478516 92.66191864013672 L 0.09114973992109299 92.66191864013672 L -2.304266929626465 92.66191864013672 L -2.406579494476318 90.26869201660156 C -2.468558549880981 88.81850433349609 -2.499996185302734 87.34310913085938 -2.499996185302734 85.88348388671875 C -2.499996185302734 73.99367523193359 -0.4713294208049774 62.45573425292969 3.529628992080688 51.59012985229492 C 5.454878807067871 46.36161041259766 7.838503837585449 41.31752395629883 10.6142749786377 36.59802627563477 C 13.36685848236084 31.91794204711914 16.52921295166016 27.5156307220459 20.01348304748535 23.51335906982422 C 23.50317001342773 19.50485801696777 27.34487915039062 15.86423397064209 31.43185806274414 12.69262981414795 C 35.56554412841797 9.484796524047852 39.98671340942383 6.728588104248047 44.57256698608398 4.500567436218262 C 49.25069046020508 2.227733850479126 54.14779663085938 0.4817756414413452 59.12788009643555 -0.6888077259063721 C 64.24087524414062 -1.890620231628418 69.50315093994141 -2.499995231628418 74.76846313476562 -2.499995231628418 C 80.03369140625 -2.499995231628418 85.29586029052734 -1.890620231628418 90.40879821777344 -0.6888077259063721 C 95.3887939453125 0.4817756414413452 100.2858581542969 2.227733850479126 104.9639205932617 4.500567436218262 C 109.5497131347656 6.728588104248047 113.9708404541016 9.484796524047852 118.1044616699219 12.69262981414795 C 122.1914215087891 15.86423397064209 126.033088684082 19.50485801696777 129.5227508544922 23.51335906982422 C 133.0070037841797 27.5156307220459 136.1693420410156 31.91794204711914 138.9219055175781 36.59802627563477 C 141.6976470947266 41.31754684448242 144.0812683105469 46.36161041259766 146.0065307617188 51.59012985229492 C 150.0074768066406 62.45573425292969 152.0361328125 73.99369049072266 152.0361328125 85.88348388671875 C 152.0361328125 87.3427734375 152.0046844482422 88.81816864013672 151.9426879882812 90.26869201660156 L 151.8403778076172 92.66191864013672 Z" stroke="none"/>
              <path d="M 149.4449768066406 90.16194152832031 C 149.505615234375 88.74324798583984 149.5361328125 87.31944274902344 149.5361328125 85.88348388671875 C 149.5361328125 38.45184326171875 116.0614700317383 1.07538135125651e-05 74.76847076416016 1.07538135125651e-05 C 33.47466278076172 1.07538135125651e-05 -5.022321602154989e-06 38.45184326171875 -5.022321602154989e-06 85.88348388671875 C -5.022321602154989e-06 87.31944274902344 0.03051878698170185 88.74324798583984 0.09116164594888687 90.16194152832031 L 149.4449768066406 90.16194152832031 M 154.2358093261719 95.16194152832031 L -4.699671745300293 95.16194152832031 L -4.904266834259033 90.37546539306641 C -4.967790603637695 88.88946533203125 -5.00000524520874 87.37812805175781 -5.00000524520874 85.88348388671875 C -5.00000524520874 79.76325225830078 -4.462862014770508 73.64482116699219 -3.403481245040894 67.69818115234375 C -2.369671583175659 61.89496231079102 -0.8263383507728577 56.18479537963867 1.183614015579224 50.72627258300781 C 3.160256862640381 45.35817718505859 5.608185291290283 40.17832183837891 8.459352493286133 35.33060455322266 C 11.28982830047607 30.51812934875488 14.54278087615967 25.98993873596191 18.1279239654541 21.8718204498291 C 21.72389984130859 17.74124908447266 25.68432807922363 13.98841571807861 29.89918518066406 10.7175817489624 C 34.16944885253906 7.403748989105225 38.73870849609375 4.555487155914307 43.48006820678711 2.251915454864502 C 48.32404327392578 -0.101489245891571 53.39625549316406 -1.909703493118286 58.55585098266602 -3.122465372085571 C 63.8560905456543 -4.368299007415771 69.31080627441406 -4.999989032745361 74.76847076416016 -4.999989032745361 C 80.22604370117188 -4.999989032745361 85.6806640625 -4.368299007415771 90.98085021972656 -3.122465372085571 C 96.14035034179688 -1.909703493118286 101.212516784668 -0.101489245891571 106.0564270019531 2.251939296722412 C 110.7977066040039 4.555487155914307 115.3669509887695 7.403748989105225 119.6371612548828 10.7175817489624 C 123.8519973754883 13.98841571807861 127.8123779296875 17.74124908447266 131.4083251953125 21.8718433380127 C 134.9934234619141 25.98993873596191 138.2463684082031 30.51812934875488 141.0768280029297 35.33063125610352 C 143.9279937744141 40.1783447265625 146.3759002685547 45.35817718505859 148.3525390625 50.72627258300781 C 150.3624877929688 56.18479537963867 151.9058074951172 61.89498519897461 152.9396209716797 67.69818115234375 C 153.9989929199219 73.64482116699219 154.5361328125 79.76325225830078 154.5361328125 85.88348388671875 C 154.5361328125 87.37812805175781 154.5039215087891 88.88946533203125 154.4403991699219 90.37546539306641 L 154.2358093261719 95.16194152832031 Z" stroke="none" fill="#fff"/>
            </g>
            <g id="Ellipse_1866" data-name="Ellipse 1866" transform="translate(46.989 0)" stroke="#fff" stroke-width="5" fill="url(#linear-gradient-8)">
              <ellipse cx="27.728" cy="27.728" rx="27.728" ry="27.728" stroke="none"/>
              <ellipse cx="27.728" cy="27.728" rx="30.228" ry="30.228" fill="none"/>
            </g>
          </g>
        </g>
      </g>
    </g>
    <g id="Group_20985" data-name="Group 20985" transform="translate(21884.082 -14701.565)">
      <g transform="matrix(1, 0, 0, 1, -181.38, -108.44)" filter="url(#Ellipse_2210)">
        <ellipse id="Ellipse_2210-2" data-name="Ellipse 2210" cx="20.5" cy="21" rx="20.5" ry="21" transform="translate(181.18 108)" fill="#80298f"/>
      </g>
      <g id="Group_20978" data-name="Group 20978" transform="translate(47.892 2.709)">
        <text id="Years_of_experince" data-name="Years of 
experince" transform="translate(-0.088 14.856)" fill="#80298f" font-size="14" font-family="RoundedMplus1c-Bold, 'Rounded Mplus \31 c'" font-weight="700" letter-spacing="0.004em"><tspan x="0" y="0">Years of </tspan><tspan x="0" y="16">experince</tspan></text>
      </g>
      <g id="Group_21207" data-name="Group 21207" transform="translate(6.325 9.94)">
        <text id="_50" data-name="50" transform="translate(0.477 16.626)" fill="#fff" font-size="16" font-family="Poppins-Bold, Poppins" font-weight="700" letter-spacing="0.004em"><tspan x="0" y="0">50</tspan></text>
        <text id="_" data-name="+" transform="translate(22.477 12.626)" fill="#fff" font-size="9" font-family="Poppins-Bold, Poppins" font-weight="700" letter-spacing="0.004em"><tspan x="0" y="0">+</tspan></text>
      </g>
    </g>
    <g id="Group_20986" data-name="Group 20986" transform="translate(22033.82 -14620.532)">
      <g id="Group_20985-2" data-name="Group 20985" transform="translate(0 0)">
        <g id="Group_18581" data-name="Group 18581" transform="translate(8.079 3.812)">
          <rect id="Rectangle_5465" data-name="Rectangle 5465" width="14.138" height="63.956" transform="translate(72.034 0)" fill="#ff7920"/>
          <rect id="Rectangle_5472" data-name="Rectangle 5472" width="14.138" height="45.106" transform="translate(72.034 18.85)" fill="#fec460"/>
          <rect id="Rectangle_5466" data-name="Rectangle 5466" width="14.138" height="41.066" transform="translate(49.145 22.889)" fill="#ff7920"/>
          <rect id="Rectangle_5471" data-name="Rectangle 5471" width="14.138" height="26.929" transform="translate(49.145 37.027)" fill="#fec460"/>
          <rect id="Rectangle_5467" data-name="Rectangle 5467" width="14.811" height="48.472" transform="translate(24.236 15.484)" fill="#ff7920"/>
          <rect id="Rectangle_5470" data-name="Rectangle 5470" width="14.811" height="20.87" transform="translate(24.236 43.086)" fill="#fec460"/>
          <rect id="Rectangle_5468" data-name="Rectangle 5468" width="14.811" height="48.472" transform="translate(0 15.484)" fill="#ff7920"/>
          <rect id="Rectangle_5469" data-name="Rectangle 5469" width="14.811" height="26.929" transform="translate(0 37.027)" fill="#fec460"/>
        </g>
        <path id="Path_12856" data-name="Path 12856" d="M-691.945-13221.5v76.264h110.936" transform="translate(691.945 13221.503)" fill="none" stroke="#febd77" stroke-width="1"/>
      </g>
      <g id="Group_20986-2" data-name="Group 20986" transform="translate(43.306 32.242) rotate(11)">
        <g id="Group_18880" data-name="Group 18880" transform="translate(0 0)">
          <g id="Group_18879" data-name="Group 18879" transform="translate(41.113 41.986)">
            <rect id="Rectangle_5591" data-name="Rectangle 5591" width="17.069" height="7.018" transform="matrix(0.695, 0.719, -0.719, 0.695, 5.049, 0)" fill="url(#linear-gradient-10)"/>
            <rect id="Rectangle_5592" data-name="Rectangle 5592" width="33.268" height="10.406" rx="5.203" transform="matrix(0.695, 0.719, -0.719, 0.695, 9.601, 2.194)" fill="url(#linear-gradient-10)"/>
          </g>
          <path id="Subtraction_86" data-name="Subtraction 86" d="M26.363,52.725A26.369,26.369,0,0,1,16.1,2.072,26.369,26.369,0,0,1,36.624,50.653,26.2,26.2,0,0,1,26.363,52.725Zm0-47.865a21.5,21.5,0,1,0,21.5,21.5A21.528,21.528,0,0,0,26.363,4.86Z" transform="translate(0 0)" fill="url(#linear-gradient-10)"/>
          <ellipse id="Ellipse_1963" data-name="Ellipse 1963" cx="21.503" cy="21.503" rx="21.503" ry="21.503" transform="translate(4.859 4.859)" fill="rgba(0,0,0,0.05)"/>
        </g>
        <path id="Path_12904" data-name="Path 12904" d="M0,0S13.8,1.661,18.169,7.234s4.044,10.694,1.987,19.1c-.364-.235,4.125-9.275-4.142-17.78S0,0,0,0Z" transform="translate(23.217 7.433)" fill="#5c2d91" opacity="0.21"/>
      </g>
    </g>
  </g>
</svg>
