<svg xmlns="http://www.w3.org/2000/svg" width="42" height="58" viewBox="0 0 42 58">
  <g id="Group_26580" data-name="Group 26580" transform="translate(-1336 -4559)">
    <g id="Subtraction_114" data-name="Subtraction 114" transform="translate(1336 4559)" fill="#f9df8d" opacity="0.4">
      <path d="M 8.274467468261719 19.9999828338623 L 2.414269685745239 19.99974632263184 L 21.00154495239258 1.414180397987366 L 39.58609771728516 19.9988842010498 L 33.72829818725586 19.99959945678711 L 21.70866966247559 7.980410099029541 L 21.00157928466797 7.273340225219727 L 20.29449081420898 7.980410099029541 L 8.274467468261719 19.9999828338623 Z" stroke="none"/>
      <path d="M 7.860275268554688 18.99996566772461 L 21.00157928466797 5.85915994644165 L 34.1424560546875 18.99954795837402 L 37.17218780517578 18.99917984008789 L 21.00150871276855 2.828370809555054 L 4.828549385070801 18.99984359741211 L 7.860275268554688 18.99996566772461 M 8.689000129699707 21 L 0 20.99964904785156 L 21.00157928466797 0 L 42 20.99859046936035 L 33.31415176391602 20.99964904785156 L 21.00157928466797 8.687529563903809 L 8.689000129699707 21 Z" stroke="none" fill="#f9df8d"/>
    </g>
    <g id="Subtraction_116" data-name="Subtraction 116" transform="translate(1336 4576)" fill="#f9df8d" opacity="0.4">
      <path d="M 8.274467468261719 19.9999828338623 L 2.414269685745239 19.99974632263184 L 21.00154495239258 1.414180397987366 L 39.58609771728516 19.9988842010498 L 33.72829818725586 19.99959945678711 L 21.70866966247559 7.980410099029541 L 21.00157928466797 7.273340225219727 L 20.29449081420898 7.980410099029541 L 8.274467468261719 19.9999828338623 Z" stroke="none"/>
      <path d="M 7.860275268554688 18.99996566772461 L 21.00157928466797 5.85915994644165 L 34.1424560546875 18.99954795837402 L 37.17218780517578 18.99917984008789 L 21.00150871276855 2.828370809555054 L 4.828549385070801 18.99984359741211 L 7.860275268554688 18.99996566772461 M 8.689000129699707 21 L 0 20.99964904785156 L 21.00157928466797 0 L 42 20.99859046936035 L 33.31415176391602 20.99964904785156 L 21.00157928466797 8.687529563903809 L 8.689000129699707 21 Z" stroke="none" fill="#f9df8d"/>
    </g>
    <g id="Subtraction_118" data-name="Subtraction 118" transform="translate(1336 4596)" fill="#f9df8d" opacity="0.4">
      <path d="M 8.274467468261719 19.9999828338623 L 2.414269685745239 19.99974632263184 L 21.00154495239258 1.414180397987366 L 39.58609771728516 19.9988842010498 L 33.72829818725586 19.99959945678711 L 21.70866966247559 7.980410099029541 L 21.00157928466797 7.273340225219727 L 20.29449081420898 7.980410099029541 L 8.274467468261719 19.9999828338623 Z" stroke="none"/>
      <path d="M 7.860275268554688 18.99996566772461 L 21.00157928466797 5.85915994644165 L 34.1424560546875 18.99954795837402 L 37.17218780517578 18.99917984008789 L 21.00150871276855 2.828370809555054 L 4.828549385070801 18.99984359741211 L 7.860275268554688 18.99996566772461 M 8.689000129699707 21 L 0 20.99964904785156 L 21.00157928466797 0 L 42 20.99859046936035 L 33.31415176391602 20.99964904785156 L 21.00157928466797 8.687529563903809 L 8.689000129699707 21 Z" stroke="none" fill="#f9df8d"/>
    </g>
  </g>
</svg>
