<svg xmlns="http://www.w3.org/2000/svg" width="20" height="20" viewBox="0 0 20 20">
  <g id="Group_21629" data-name="Group 21629" transform="translate(0 0)">
    <path id="Subtraction_131" data-name="Subtraction 131" d="M18,20H2a2,2,0,0,1-2-2V2A2,2,0,0,1,2,0H18a2,2,0,0,1,2,2V18A2,2,0,0,1,18,20ZM10.2,2.977c-1.251,0-2.361.019-2.9.049A4.151,4.151,0,0,0,4.36,4.157,4.151,4.151,0,0,0,3.226,7.1c-.066,1.165-.066,4.631,0,5.8A4.126,4.126,0,0,0,4.36,15.838,4.163,4.163,0,0,0,7.3,16.973c.54.031,1.623.049,2.9.049s2.358-.018,2.9-.049a4.126,4.126,0,0,0,2.943-1.135A4.156,4.156,0,0,0,17.176,12.9c.066-1.164.066-4.628,0-5.792a4.126,4.126,0,0,0-1.135-2.943A4.158,4.158,0,0,0,13.1,3.026C12.561,3,11.451,2.977,10.2,2.977Zm1.242,12.789c-.262,0-.515,0-.738,0-.188,0-.357,0-.5,0l-.487,0c-.22,0-.466,0-.722,0a10.093,10.093,0,0,1-2.932-.29A2.369,2.369,0,0,1,4.727,14.14,12.659,12.659,0,0,1,4.441,10.5c0-.186,0-.355,0-.5s0-.308,0-.489a12.8,12.8,0,0,1,.285-3.652A2.375,2.375,0,0,1,6.062,4.524a9.839,9.839,0,0,1,2.889-.29c.265,0,.521,0,.747,0,.187,0,.358,0,.5,0l.489,0c.224,0,.472,0,.73,0a10.056,10.056,0,0,1,2.922.29,2.374,2.374,0,0,1,1.335,1.335A12.64,12.64,0,0,1,15.963,9.5c0,.186,0,.355,0,.5s0,.314,0,.5a12.623,12.623,0,0,1-.286,3.64,2.37,2.37,0,0,1-1.335,1.335A9.884,9.884,0,0,1,11.442,15.766ZM10.2,6.4A3.6,3.6,0,1,0,13.8,10,3.605,3.605,0,0,0,10.2,6.4Zm3.748-.987a.84.84,0,1,0,.84.841A.842.842,0,0,0,13.951,5.411ZM10.2,12.341A2.341,2.341,0,1,1,12.543,10,2.344,2.344,0,0,1,10.2,12.341Z" transform="translate(0 0)" fill="#fff"/>
  </g>
</svg>
