<svg xmlns="http://www.w3.org/2000/svg" width="36" height="36" viewBox="0 0 36 36">
  <g id="Group_19503" data-name="Group 19503" transform="translate(-20990 14670)">
    <rect id="Rectangle_5815" data-name="Rectangle 5815" width="36" height="36" transform="translate(20990 -14670)" fill="none"/>
    <g id="Group_18623" data-name="Group 18623" transform="translate(20997 -14665)">
      <path id="Path_12846" data-name="Path 12846" d="M13.527,2A10.667,10.667,0,0,0,3,12.8a10.749,10.749,0,0,0,7.825,10.428L13.527,26l2.7-2.772A10.749,10.749,0,0,0,24.053,12.8,10.667,10.667,0,0,0,13.527,2Zm0,2.4A3.551,3.551,0,0,1,17.036,8a3.51,3.51,0,1,1-7.018,0A3.551,3.551,0,0,1,13.527,4.4Zm0,17.16A8.369,8.369,0,0,1,6.509,17.7c.035-2.388,4.679-3.7,7.018-3.7s6.983,1.308,7.018,3.7A8.369,8.369,0,0,1,13.527,21.56Z" transform="translate(-3 -2)"/>
    </g>
  </g>
</svg>
