<svg xmlns="http://www.w3.org/2000/svg" width="36" height="36" viewBox="0 0 36 36">
  <g id="Group_19509" data-name="Group 19509" transform="translate(-20993 14551.117)">
    <g id="insights_black_24dp_1_" data-name="insights_black_24dp (1)" transform="translate(20999 -14545.117)">
      <g id="Group_19505" data-name="Group 19505">
        <rect id="Rectangle_5817" data-name="Rectangle 5817" width="24" height="24" fill="none"/>
      </g>
      <g id="Group_19507" data-name="Group 19507">
        <g id="Group_19506" data-name="Group 19506">
          <path id="Path_13395" data-name="Path 13395" d="M21,8a2,2,0,0,0-1.93,2.51l-3.55,3.56a2.037,2.037,0,0,0-1.04,0l-2.55-2.55a2,2,0,1,0-3.86,0L3.51,16.07a2,2,0,1,0,1.42,1.42l4.55-4.56a2.037,2.037,0,0,0,1.04,0l2.55,2.55a2,2,0,1,0,3.86,0l3.56-3.55A2,2,0,1,0,21,8Z"/>
          <path id="Path_13396" data-name="Path 13396" d="M15,9l.94-2.07L18,6l-2.06-.93L15,3l-.92,2.07L12,6l2.08.93Z"/>
          <path id="Path_13397" data-name="Path 13397" d="M3.5,11,4,9l2-.5L4,8,3.5,6,3,8,1,8.5,3,9Z"/>
        </g>
      </g>
    </g>
    <g id="Group_19508" data-name="Group 19508" transform="translate(0 -7.059)">
      <rect id="Rectangle_5816" data-name="Rectangle 5816" width="36" height="36" transform="translate(20993 -14544.059)" fill="none"/>
    </g>
  </g>
</svg>
