<svg xmlns="http://www.w3.org/2000/svg" width="214" height="30.001" viewBox="0 0 214 30.001">
  <g id="Group_21218" data-name="Group 21218" transform="translate(-5 0)">
    <g id="Group_21623" data-name="Group 21623" transform="translate(-1025 0.001)">
      <path id="Subtraction_130" data-name="Subtraction 130" d="M27,30H3a3,3,0,0,1-3-3V3A3,3,0,0,1,3,0H27a3,3,0,0,1,3,3V27A3,3,0,0,1,27,30ZM15.312,7.5c-.069,0-6.886.005-8.578.462A2.759,2.759,0,0,0,4.793,9.913a29.143,29.143,0,0,0-.458,5.319,29.143,29.143,0,0,0,.458,5.319A2.761,2.761,0,0,0,6.734,22.5c1.692.456,8.509.462,8.578.462s6.885-.005,8.578-.462a2.759,2.759,0,0,0,1.94-1.954,29.087,29.087,0,0,0,.459-5.319,29.087,29.087,0,0,0-.459-5.319A2.756,2.756,0,0,0,23.89,7.96C22.2,7.5,15.38,7.5,15.312,7.5Zm-2.245,11V11.967L18.8,15.232,13.068,18.5Z" transform="translate(1214)" fill="#fff"/>
    </g>
    <g id="Group_1800" data-name="Group 1800" transform="translate(-1071 0.001)">
      <path id="Subtraction_131" data-name="Subtraction 131" d="M27,30H3a3,3,0,0,1-3-3V3A3,3,0,0,1,3,0H27a3,3,0,0,1,3,3V27A3,3,0,0,1,27,30ZM15.3,4.464c-1.876,0-3.542.028-4.346.074a6.225,6.225,0,0,0-4.415,1.7,6.222,6.222,0,0,0-1.7,4.415c-.1,1.747-.1,6.946,0,8.693a6.194,6.194,0,0,0,1.7,4.414,6.248,6.248,0,0,0,4.415,1.7c.809.046,2.475.075,4.346.075s3.537-.029,4.346-.075a6.2,6.2,0,0,0,4.415-1.7,6.238,6.238,0,0,0,1.7-4.414c.1-1.746.1-6.942,0-8.688a6.2,6.2,0,0,0-1.7-4.415,6.239,6.239,0,0,0-4.415-1.7C18.841,4.492,17.176,4.464,15.3,4.464Zm1.865,19.183h0c-.395,0-.775,0-1.111-.007-.276,0-.534-.005-.752-.005s-.468,0-.736.005c-.328,0-.7.007-1.087.007a15.109,15.109,0,0,1-4.388-.435,3.558,3.558,0,0,1-2-2c-.472-1.19-.446-3.76-.428-5.46,0-.275.005-.533.005-.751s0-.468-.005-.736c-.016-1.707-.041-4.286.428-5.474a3.559,3.559,0,0,1,2-2,14.844,14.844,0,0,1,4.348-.436c.4,0,.777,0,1.112.007.275,0,.533.005.751.005s.468,0,.736-.005c.328,0,.7-.007,1.087-.007a15.1,15.1,0,0,1,4.387.435,3.563,3.563,0,0,1,2,2c.472,1.19.446,3.759.428,5.459,0,.275-.005.533-.005.751s0,.476.005.749c.017,1.7.043,4.276-.428,5.462a3.563,3.563,0,0,1-2,2A14.839,14.839,0,0,1,17.165,23.648ZM15.3,9.6A5.4,5.4,0,1,0,20.7,15,5.408,5.408,0,0,0,15.3,9.6Zm5.622-1.48a1.26,1.26,0,1,0,1.26,1.26A1.261,1.261,0,0,0,20.924,8.116ZM15.3,18.51A3.512,3.512,0,1,1,18.814,15,3.516,3.516,0,0,1,15.3,18.51Z" transform="translate(1214.002)" fill="#fff"/>
    </g>
    <path id="Icon_awesome-linkedin" data-name="Icon awesome-linkedin" d="M27.857,2.25H2.136A2.152,2.152,0,0,0,0,4.413V30.087A2.152,2.152,0,0,0,2.136,32.25H27.857A2.158,2.158,0,0,0,30,30.087V4.413A2.158,2.158,0,0,0,27.857,2.25ZM9.067,27.964H4.621V13.647H9.074V27.964ZM6.844,11.692A2.578,2.578,0,1,1,9.422,9.114,2.579,2.579,0,0,1,6.844,11.692ZM25.734,27.964H21.288V21c0-1.661-.033-3.8-2.31-3.8-2.317,0-2.672,1.808-2.672,3.676v7.085H11.859V13.647h4.266V15.6h.06a4.683,4.683,0,0,1,4.212-2.31c4.5,0,5.337,2.967,5.337,6.824Z" transform="translate(97 -2.25)" fill="#fff"/>
    <path id="Icon_awesome-twitter-square" data-name="Icon awesome-twitter-square" d="M26.786,2.25H3.214A3.215,3.215,0,0,0,0,5.464V29.036A3.215,3.215,0,0,0,3.214,32.25H26.786A3.215,3.215,0,0,0,30,29.036V5.464A3.215,3.215,0,0,0,26.786,2.25ZM23.511,12.884c.013.187.013.382.013.569a12.41,12.41,0,0,1-12.5,12.5A12.438,12.438,0,0,1,4.286,23.98a9.252,9.252,0,0,0,1.058.054,8.805,8.805,0,0,0,5.451-1.875,4.4,4.4,0,0,1-4.1-3.047,4.733,4.733,0,0,0,1.982-.08,4.392,4.392,0,0,1-3.516-4.312v-.054a4.389,4.389,0,0,0,1.982.556,4.383,4.383,0,0,1-1.955-3.656,4.337,4.337,0,0,1,.6-2.217,12.47,12.47,0,0,0,9.054,4.594,4.4,4.4,0,0,1,7.493-4.011,8.606,8.606,0,0,0,2.786-1.058,4.38,4.38,0,0,1-1.929,2.417,8.74,8.74,0,0,0,2.531-.683A9.244,9.244,0,0,1,23.511,12.884Z" transform="translate(51 -2.25)" fill="#fff"/>
    <path id="Icon_awesome-facebook-square" data-name="Icon awesome-facebook-square" d="M26.786,2.25H3.214A3.214,3.214,0,0,0,0,5.464V29.036A3.214,3.214,0,0,0,3.214,32.25h9.191v-10.2H8.186v-4.8h4.219V13.591c0-4.162,2.478-6.461,6.273-6.461a25.558,25.558,0,0,1,3.718.324v4.085H20.3a2.4,2.4,0,0,0-2.707,2.594V17.25H22.2l-.737,4.8H17.595v10.2h9.191A3.214,3.214,0,0,0,30,29.036V5.464A3.214,3.214,0,0,0,26.786,2.25Z" transform="translate(5 -2.25)" fill="#fff"/>
  </g>
</svg>
