<svg id="Group_18857" data-name="Group 18857" xmlns="http://www.w3.org/2000/svg" width="148" height="20.349" viewBox="0 0 148 20.349">
  <path id="Icon_awesome-linkedin" data-name="Icon awesome-linkedin" d="M18.571,2.25H1.424A1.435,1.435,0,0,0,0,3.692V20.808A1.435,1.435,0,0,0,1.424,22.25H18.571A1.439,1.439,0,0,0,20,20.808V3.692A1.439,1.439,0,0,0,18.571,2.25ZM6.045,19.393H3.08V9.848H6.049v9.545ZM4.563,8.545A1.719,1.719,0,1,1,6.281,6.826,1.719,1.719,0,0,1,4.563,8.545ZM17.156,19.393H14.192V14.75c0-1.107-.022-2.531-1.54-2.531-1.545,0-1.781,1.205-1.781,2.451v4.723H7.906V9.848H10.75v1.3h.04A3.122,3.122,0,0,1,13.6,9.612c3,0,3.558,1.978,3.558,4.549Z" transform="translate(64 -1.901)" fill="#fff"/>
  <path id="Icon_awesome-twitter-square" data-name="Icon awesome-twitter-square" d="M17.857,2.25H2.143A2.143,2.143,0,0,0,0,4.393V20.107A2.143,2.143,0,0,0,2.143,22.25H17.857A2.143,2.143,0,0,0,20,20.107V4.393A2.143,2.143,0,0,0,17.857,2.25ZM15.674,9.339c.009.125.009.254.009.379a8.274,8.274,0,0,1-8.33,8.33,8.292,8.292,0,0,1-4.5-1.312,6.168,6.168,0,0,0,.705.036A5.87,5.87,0,0,0,7.2,15.522,2.932,2.932,0,0,1,4.46,13.491a3.156,3.156,0,0,0,1.321-.054,2.928,2.928,0,0,1-2.344-2.875v-.036a2.926,2.926,0,0,0,1.321.371,2.922,2.922,0,0,1-1.3-2.437,2.891,2.891,0,0,1,.4-1.478,8.314,8.314,0,0,0,6.036,3.063,2.934,2.934,0,0,1,5-2.674,5.737,5.737,0,0,0,1.857-.705,2.92,2.92,0,0,1-1.286,1.612,5.827,5.827,0,0,0,1.688-.455A6.163,6.163,0,0,1,15.674,9.339Z" transform="translate(32 -2.25)" fill="#fff"/>
  <path id="Icon_awesome-facebook-square" data-name="Icon awesome-facebook-square" d="M17.857,2.25H2.143A2.143,2.143,0,0,0,0,4.393V20.107A2.143,2.143,0,0,0,2.143,22.25H8.27v-6.8H5.458v-3.2H8.27V9.811C8.27,7.036,9.922,5.5,12.452,5.5a17.039,17.039,0,0,1,2.479.216V8.443h-1.4a1.6,1.6,0,0,0-1.8,1.729V12.25H14.8l-.491,3.2H11.73v6.8h6.127A2.143,2.143,0,0,0,20,20.107V4.393A2.143,2.143,0,0,0,17.857,2.25Z" transform="translate(0 -2.25)" fill="#fff"/>
  <g id="Group_21628" data-name="Group 21628" transform="translate(128 0.348)">
    <path id="Subtraction_130" data-name="Subtraction 130" d="M18,20H2a2,2,0,0,1-2-2V2A2,2,0,0,1,2,0H18a2,2,0,0,1,2,2V18A2,2,0,0,1,18,20ZM10.208,5a43.63,43.63,0,0,0-5.719.308,1.841,1.841,0,0,0-1.294,1.3,19.38,19.38,0,0,0-.306,3.545A19.393,19.393,0,0,0,3.195,13.7,1.838,1.838,0,0,0,4.489,15a43.63,43.63,0,0,0,5.719.308A43.618,43.618,0,0,0,15.925,15a1.838,1.838,0,0,0,1.294-1.3,19.393,19.393,0,0,0,.306-3.546A19.38,19.38,0,0,0,17.22,6.61a1.841,1.841,0,0,0-1.294-1.3A43.618,43.618,0,0,0,10.208,5Zm-1.5,7.332V7.978l3.826,2.176L8.712,12.33Z" transform="translate(0 0)" fill="#fff"/>
  </g>
  <g id="Group_21629" data-name="Group 21629" transform="translate(96 0.349)">
    <path id="Subtraction_131" data-name="Subtraction 131" d="M18,20H2a2,2,0,0,1-2-2V2A2,2,0,0,1,2,0H18a2,2,0,0,1,2,2V18A2,2,0,0,1,18,20ZM10.2,2.977c-1.251,0-2.361.019-2.9.049A4.151,4.151,0,0,0,4.36,4.157,4.151,4.151,0,0,0,3.226,7.1c-.066,1.165-.066,4.631,0,5.8A4.126,4.126,0,0,0,4.36,15.838,4.163,4.163,0,0,0,7.3,16.973c.54.031,1.623.049,2.9.049s2.358-.018,2.9-.049a4.126,4.126,0,0,0,2.943-1.135A4.156,4.156,0,0,0,17.176,12.9c.066-1.164.066-4.628,0-5.792a4.126,4.126,0,0,0-1.135-2.943A4.158,4.158,0,0,0,13.1,3.026C12.561,3,11.451,2.977,10.2,2.977Zm1.242,12.789c-.262,0-.515,0-.738,0-.188,0-.357,0-.5,0l-.487,0c-.22,0-.466,0-.722,0a10.093,10.093,0,0,1-2.932-.29A2.369,2.369,0,0,1,4.727,14.14,12.659,12.659,0,0,1,4.441,10.5c0-.186,0-.355,0-.5s0-.308,0-.489a12.8,12.8,0,0,1,.285-3.652A2.375,2.375,0,0,1,6.062,4.524a9.839,9.839,0,0,1,2.889-.29c.265,0,.521,0,.747,0,.187,0,.358,0,.5,0l.489,0c.224,0,.472,0,.73,0a10.056,10.056,0,0,1,2.922.29,2.374,2.374,0,0,1,1.335,1.335A12.64,12.64,0,0,1,15.963,9.5c0,.186,0,.355,0,.5s0,.314,0,.5a12.623,12.623,0,0,1-.286,3.64,2.37,2.37,0,0,1-1.335,1.335A9.884,9.884,0,0,1,11.442,15.766ZM10.2,6.4A3.6,3.6,0,1,0,13.8,10,3.605,3.605,0,0,0,10.2,6.4Zm3.748-.987a.84.84,0,1,0,.84.841A.842.842,0,0,0,13.951,5.411ZM10.2,12.341A2.341,2.341,0,1,1,12.543,10,2.344,2.344,0,0,1,10.2,12.341Z" transform="translate(0 0)" fill="#fff"/>
  </g>
</svg>
