<svg xmlns="http://www.w3.org/2000/svg" xmlns:xlink="http://www.w3.org/1999/xlink" width="126" height="126" viewBox="0 0 126 126">
  <defs>
    <filter id="Ellipse_2079" x="0" y="0" width="126" height="126" filterUnits="userSpaceOnUse">
      <feOffset dy="1" input="SourceAlpha"/>
      <feGaussianBlur stdDeviation="3" result="blur"/>
      <feFlood flood-opacity="0.078"/>
      <feComposite operator="in" in2="blur"/>
      <feComposite in="SourceGraphic"/>
    </filter>
  </defs>
  <g id="Group_21432" data-name="Group 21432" transform="translate(-817 -6083)">
    <g transform="matrix(1, 0, 0, 1, 817, 6083)" filter="url(#Ellipse_2079)">
      <circle id="Ellipse_2079-2" data-name="Ellipse 2079" cx="54" cy="54" r="54" transform="translate(9 8)" fill="#fff"/>
    </g>
    <g id="Page-1" transform="translate(857 6120)">
      <g id="InvestorQ" transform="translate(0 0)">
        <path id="Fill-4" d="M17.8.769l.3-.076a.425.425,0,0,0,.493.1,10.818,10.818,0,0,1,2.547-.4,21.5,21.5,0,0,1,5.963.115,8.989,8.989,0,0,1,3.05.808A.406.406,0,0,0,30.7,1.2l.265.065c.037.167.1.272.261.1l.281.11a1.122,1.122,0,0,0,.95.382l0,0c.079.178.142.395.39.16A.562.562,0,0,0,32.972,2a.123.123,0,0,0,.105.037A6.592,6.592,0,0,0,34.44,2.7l0,0a1.48,1.48,0,0,0,.687.379l.01,0a.838.838,0,0,0,.511.29l0,0,.144.1a.089.089,0,0,0,.087.046l.18.113h0l.135.1a.117.117,0,0,0,.1.05l.169.115h0a.551.551,0,0,0,.4.271h0a.553.553,0,0,0,.4.275l0,0,.146.117.169.131a.235.235,0,0,0,.225.157l0,0,.146.118.009.006.121.1a.094.094,0,0,0,.082.058l.172.135-.009-.007.154.124.145.121L40.6,7.39l0,0,.137.141-.006,0a.973.973,0,0,0,.428.5l.016.016a.814.814,0,0,0,.367.423l0,0a.539.539,0,0,0,.288.363l.017.023a.833.833,0,0,0,.356.431l0,0a.566.566,0,0,0,.287.389h0a1.054,1.054,0,0,0,.391.549l0,0a.543.543,0,0,0,.273.4l0,0A4.127,4.127,0,0,0,43.81,11.7a.108.108,0,0,0,.044.1.527.527,0,0,0,.238.41l.148.267.1.185a.07.07,0,0,0,.039.079,1.6,1.6,0,0,0,.359.73.065.065,0,0,0,.033.077l.1.195a.057.057,0,0,0,.027.073q.007.12.014.241c-.012.125.006.235.141.288l.113.274c-.18.373.087.571.307.787l.1.287c-.2.137-.106.3-.048.468a29.231,29.231,0,0,1,.937,3.557c.072.334-.189.765.239,1.013,0,0,0,.026-.005.026a2.979,2.979,0,0,0-.042,1.254,9.482,9.482,0,0,1,0,2.9,1.164,1.164,0,0,0,.1.96l-.025.271c-.114.026-.212.083-.216.208a12.5,12.5,0,0,0-.147,1.939h0a4.52,4.52,0,0,0-.638,2.3l.009-.01a10.131,10.131,0,0,0-1.189,2.972l-.05-.017.051.011c-.2.031-.181.171-.159.314l-.016.047a.143.143,0,0,0-.1.18l.008,0c-.187.006-.189.119-.149.257,0,0,0,.008,0,.008l-.1.009.06.078a16.208,16.208,0,0,1-1.513,2.513c-.249.382-.391.352-.655-.011-1.668-2.291-3.359-4.566-5.043-6.845a4.507,4.507,0,0,0-.4-.533.975.975,0,0,1-.158-1.206A13.722,13.722,0,0,0,25.077,9.771a4.265,4.265,0,0,1-.453-.1l.3-.041a6.461,6.461,0,0,0-2.525.037A16.238,16.238,0,0,0,17.1,11.245a13.717,13.717,0,0,0,6.817,25.88.743.743,0,0,1,.714.368c1.788,2.561,3.576,5.122,5.4,7.661.37.517.239.658-.308.8A23.365,23.365,0,0,1,10.731,42.99c-.131-.083-.267-.158-.4-.237a2.336,2.336,0,0,0-.8-.548l0,.005-.149-.123h0A.6.6,0,0,0,9,41.8l0,0L6.038,39.006h0a1.454,1.454,0,0,0-.512-.582L5.351,38.2l-.114-.139h0l-.124-.149.006,0a4.2,4.2,0,0,0-.809-1.073l0,0a1.477,1.477,0,0,0-.425-.645l-.005-.01-.109-.156.007.009a.287.287,0,0,0-.156-.254l0,0a.622.622,0,0,0-.257-.417l-.284-.635a1.053,1.053,0,0,0-.558-1.078l.008.008a1.153,1.153,0,0,0-.515-1.093L1.9,32.3c.243-.214.025-.4-.038-.593-.334-1.029-.695-2.05-.991-3.089a6.324,6.324,0,0,0-.482-1.809A.543.543,0,0,1,.321,26.4c.077-.456.288-.925-.134-1.331q-.01-.2-.019-.408a5.346,5.346,0,0,0-.006-2.4q.023-.352.046-.7A26.025,26.025,0,0,0,.9,17.925c.005-.021-.056-.06-.087-.09l.056-.265c.067-.052.176-.091.194-.156a30.359,30.359,0,0,1,1.449-3.8c.195-.459.658-.859.535-1.444l.032.036-.036-.032c.426-.357.859-.71.8-1.353l.052.013-.052-.011c.337-.016.323-.261.323-.5l0,0c.418-.057.5-.356.5-.706l0,.009c.093-.012.136-.061.112-.157a.083.083,0,0,1,.006-.01c.1.015.147-.022.108-.127,0,0,.011-.024.011-.024.285.025.258-.2.3-.371l-.012.012c.161-.008.179-.119.176-.245l0,0c.427-.128.772-.327.741-.852l.018,0c.106.016.147-.025.117-.13,0,0,.007-.015.007-.015A3.477,3.477,0,0,0,7.775,6.163l0,0c.127,0,.243-.015.227-.188l.038,0L8,5.986c.1.015.146-.03.135-.132l0,0c.1.011.144-.034.145-.13l-.008.01c.227-.078.465-.144.511-.435l.017,0c.1.03.144-.016.141-.115l0,0c.3.028.581.026.508-.411h.024c.1.023.146-.022.146-.121l0,0c.428.105.648-.082.7-.5l0,0a1.18,1.18,0,0,0,.792-.285,27.564,27.564,0,0,1,4.543-2.275A8.01,8.01,0,0,0,17.8.769" transform="translate(-0.111 -0.015)" fill="#1c86d6" fill-rule="evenodd"/>
        <path id="Fill-6" d="M36.389,49.934c-.246-.052-.324-.254-.433-.411q-4.01-5.769-8.014-11.542c-.521-.751-1.036-1.507-1.57-2.249-.2-.276-.268-.457.079-.694q3.479-2.38,6.933-4.8c.3-.209.476-.178.692.134q4.8,6.933,9.615,13.849c.21.3.275.5-.095.752-2.321,1.584-4.626,3.191-6.936,4.79-.09.063-.187.116-.272.168" transform="translate(-0.04 0.067)" fill="#2eb138" fill-rule="evenodd"/>
        <path id="Fill-8" d="M24.413,32.791c-.209-.008-.276-.168-.361-.29C22.7,30.564,21.361,28.62,20,26.686c-.212-.3-.193-.453.129-.674q3.474-2.379,6.917-4.8c.327-.23.476-.147.679.149q2,2.921,4.039,5.822c.158.227.256.381-.047.588q-3.53,2.415-7.045,4.854c-.091.062-.185.12-.264.171" transform="translate(-0.057 0.042)" fill="#2eb039" fill-rule="evenodd"/>
        <path id="Fill-10" d="M30.649,1.205a.406.406,0,0,1-.543.111,8.989,8.989,0,0,0-3.05-.808A21.5,21.5,0,0,0,21.093.393a10.813,10.813,0,0,0-2.547.4.424.424,0,0,1-.493-.1,22.1,22.1,0,0,1,12.6.512" transform="translate(-0.062 -0.015)" fill="#3586bf" fill-rule="evenodd"/>
        <path id="Fill-12" d="M17.77.767a8.01,8.01,0,0,1-2.15.824,27.564,27.564,0,0,0-4.543,2.275,1.18,1.18,0,0,1-.792.285,20.029,20.029,0,0,1,5.5-2.827A8.973,8.973,0,0,1,17.77.767" transform="translate(-0.084 -0.013)" fill="#3586bf" fill-rule="evenodd"/>
        <path id="Fill-14" d="M.386,26.739a6.324,6.324,0,0,1,.482,1.809c.3,1.039.657,2.06.991,3.089.063.194.281.379.038.593A17.638,17.638,0,0,1,.386,26.739" transform="translate(-0.111 0.058)" fill="#3586bf" fill-rule="evenodd"/>
        <path id="Fill-16" d="M3.041,12.134c.123.585-.341.986-.535,1.444a30.312,30.312,0,0,0-1.449,3.8c-.018.065-.127.1-.194.156a17.693,17.693,0,0,1,2.178-5.4" transform="translate(-0.109 0.018)" fill="#3586bf" fill-rule="evenodd"/>
        <path id="Fill-18" d="M46.582,20.686c-.429-.248-.167-.679-.24-1.013a29.235,29.235,0,0,0-.937-3.558c-.059-.167-.156-.331.048-.468a15.406,15.406,0,0,1,1.129,5.039" transform="translate(0.012 0.027)" fill="#398abf" fill-rule="evenodd"/>
        <path id="Fill-20" d="M6.023,38.9l2.968,2.794a1.012,1.012,0,0,1-.977-.455c-.592-.651-1.3-1.179-1.88-1.836-.138-.156-.1-.33-.112-.5" transform="translate(-0.095 0.091)" fill="#def6fa" fill-rule="evenodd"/>
        <path id="Fill-22" d="M46.634,25.812a1.164,1.164,0,0,1-.1-.96,9.483,9.483,0,0,0,0-2.9,2.978,2.978,0,0,1,.042-1.254,15.491,15.491,0,0,1,.061,5.113" transform="translate(0.015 0.041)" fill="#398abf" fill-rule="evenodd"/>
        <path id="Fill-24" d="M.808,17.787c.031.03.092.069.087.09a26.031,26.031,0,0,1-.687,3.632,13.937,13.937,0,0,1,.6-3.722" transform="translate(-0.111 0.033)" fill="#3586bf" fill-rule="evenodd"/>
        <path id="Fill-26" d="M40.5,7.376,38.5,5.485c.54-.181.722.364,1.048.571A1.851,1.851,0,0,1,40.5,7.376" transform="translate(-0.006 -0.001)" fill="#dcf5fc" fill-rule="evenodd"/>
        <path id="Fill-28" d="M44.435,33.47A10.132,10.132,0,0,1,45.624,30.5a10.37,10.37,0,0,1-1.189,2.972" transform="translate(0.01 0.068)" fill="#398abf" fill-rule="evenodd"/>
        <path id="Fill-30" d="M7.759,6.146A3.477,3.477,0,0,1,6.224,7.694,5.92,5.92,0,0,1,7.759,6.146" transform="translate(-0.095 0.001)" fill="#3586bf" fill-rule="evenodd"/>
        <path id="Fill-32" d="M45.612,30.513a4.52,4.52,0,0,1,.638-2.3,7.361,7.361,0,0,1-.638,2.3" transform="translate(0.013 0.062)" fill="#398abf" fill-rule="evenodd"/>
        <path id="Fill-34" d="M46.248,28.215a12.456,12.456,0,0,1,.147-1.939c0-.125.1-.182.216-.208a7.421,7.421,0,0,1-.362,2.147" transform="translate(0.015 0.056)" fill="#398abf" fill-rule="evenodd"/>
        <path id="Fill-36" d="M4.3,36.746a4.2,4.2,0,0,1,.809,1.073c-.656-.066-.782-.532-.809-1.073" transform="translate(-0.1 0.085)" fill="#def6fa" fill-rule="evenodd"/>
        <path id="Fill-38" d="M34.35,2.7a6.591,6.591,0,0,1-1.362-.667c.579-.034,1.122.007,1.362.667" transform="translate(-0.021 -0.01)" fill="#dcf5fc" fill-rule="evenodd"/>
        <path id="Fill-40" d="M3.831,10.788c.06.644-.374,1-.8,1.353a3.724,3.724,0,0,1,.8-1.353" transform="translate(-0.103 0.014)" fill="#3586bf" fill-rule="evenodd"/>
        <path id="Fill-42" d="M22.332,9.645a6.463,6.463,0,0,1,2.525-.037l-.3.041-2.23,0" transform="translate(-0.051 0.01)" fill="#2b7cb5" fill-rule="evenodd"/>
        <path id="Fill-44" d="M.187,25c.422.406.211.875.134,1.331A3.821,3.821,0,0,1,.187,25" transform="translate(-0.111 0.053)" fill="#3586bf" fill-rule="evenodd"/>
        <path id="Fill-46" d="M.162,22.2a5.345,5.345,0,0,1,.006,2.4,13.507,13.507,0,0,1-.006-2.4" transform="translate(-0.111 0.045)" fill="#3586bf" fill-rule="evenodd"/>
        <path id="Fill-48" d="M43.693,11.672a4.129,4.129,0,0,1-.669-1.094.917.917,0,0,1,.669,1.094" transform="translate(0.006 0.013)" fill="#dcf5fc" fill-rule="evenodd"/>
        <path id="Fill-50" d="M6.085,7.839c.031.526-.315.725-.741.852a2.262,2.262,0,0,1,.741-.852" transform="translate(-0.097 0.006)" fill="#3586bf" fill-rule="evenodd"/>
        <path id="Fill-52" d="M2.517,33.569a1.053,1.053,0,0,1,.558,1.078,2.485,2.485,0,0,1-.558-1.078" transform="translate(-0.105 0.076)" fill="#3586bf" fill-rule="evenodd"/>
        <path id="Fill-54" d="M2.012,32.487a1.153,1.153,0,0,1,.514,1.093,2.466,2.466,0,0,1-.514-1.093" transform="translate(-0.106 0.073)" fill="#3586bf" fill-rule="evenodd"/>
        <path id="Fill-56" d="M9.509,42.09a2.337,2.337,0,0,1,.8.548c-.406.021-.749-.048-.8-.548" transform="translate(-0.086 0.1)" fill="#def6fa" fill-rule="evenodd"/>
        <path id="Fill-58" d="M10.292,4.139c-.056.418-.276.605-.7.5a1.621,1.621,0,0,1,.7-.5" transform="translate(-0.086 -0.004)" fill="#3586bf" fill-rule="evenodd"/>
        <path id="Fill-60" d="M4.652,9.6c-.007.35-.085.649-.5.706a1.544,1.544,0,0,1,.5-.706" transform="translate(-0.1 0.011)" fill="#3586bf" fill-rule="evenodd"/>
        <path id="Fill-62" d="M5.51,38.318a1.454,1.454,0,0,1,.512.582c-.413.019-.577-.181-.512-.582" transform="translate(-0.097 0.089)" fill="#def6fa" fill-rule="evenodd"/>
        <path id="Fill-64" d="M45.35,15.363c-.22-.216-.487-.414-.307-.787a1.546,1.546,0,0,1,.307.787" transform="translate(0.011 0.024)" fill="#398abf" fill-rule="evenodd"/>
        <path id="Fill-66" d="M44.615,13.434a1.6,1.6,0,0,1-.359-.731c.467.073.387.415.359.731" transform="translate(0.009 0.019)" fill="#dcf5fc" fill-rule="evenodd"/>
        <path id="Fill-68" d="M32.369,1.855a1.123,1.123,0,0,1-.95-.382l.626.161.324.221" transform="translate(-0.026 -0.011)" fill="#3586bf" fill-rule="evenodd"/>
        <path id="Fill-70" d="M3.877,36.106a1.477,1.477,0,0,1,.425.645c-.452-.01-.412-.345-.425-.645" transform="translate(-0.101 0.083)" fill="#def6fa" fill-rule="evenodd"/>
        <path id="Fill-72" d="M35.03,3.071a1.481,1.481,0,0,1-.687-.379c.306-.014.626-.051.687.379" transform="translate(-0.018 -0.008)" fill="#dcf5fc" fill-rule="evenodd"/>
        <path id="Fill-74" d="M9.422,4.759c.074.437-.2.438-.508.411a.894.894,0,0,1,.508-.411" transform="translate(-0.087 -0.002)" fill="#3586bf" fill-rule="evenodd"/>
        <path id="Fill-76" d="M41.048,8a.973.973,0,0,1-.428-.5c.343-.006.419.217.428.5" transform="translate(-0.001 0.005)" fill="#dcf5fc" fill-rule="evenodd"/>
        <path id="Fill-78" d="M42.759,10.184a1.055,1.055,0,0,1-.391-.549c.356.022.426.249.391.549" transform="translate(0.004 0.011)" fill="#dcf5fc" fill-rule="evenodd"/>
        <path id="Fill-80" d="M8.762,5.289c-.046.291-.284.357-.511.435a.9.9,0,0,1,.511-.435" transform="translate(-0.089 -0.001)" fill="#3586bf" fill-rule="evenodd"/>
        <path id="Fill-82" d="M3.358,35.277a.622.622,0,0,1,.257.417c-.394.051-.3-.2-.257-.417" transform="translate(-0.103 0.081)" fill="#def6fa" fill-rule="evenodd"/>
        <path id="Fill-84" d="M32.367,1.854l-.324-.221c.223,0,.5-.122.578.238l-.258-.014Z" transform="translate(-0.024 -0.011)" fill="#dcf5fc" fill-rule="evenodd"/>
        <path id="Fill-86" d="M41.43,8.439a.815.815,0,0,1-.367-.423c.295-.008.407.142.367.423" transform="translate(0.001 0.006)" fill="#dcf5fc" fill-rule="evenodd"/>
        <path id="Fill-88" d="M42.087,9.252a.833.833,0,0,1-.356-.431c.3-.01.41.145.356.431" transform="translate(0.002 0.009)" fill="#dcf5fc" fill-rule="evenodd"/>
        <path id="Fill-90" d="M35.549,3.365a.839.839,0,0,1-.511-.29c.209.029.49-.07.511.29" transform="translate(-0.016 -0.007)" fill="#dcf5fc" fill-rule="evenodd"/>
        <path id="Fill-92" d="M4.152,10.3c0,.235.014.48-.323.5a.815.815,0,0,1,.323-.5" transform="translate(-0.101 0.013)" fill="#3586bf" fill-rule="evenodd"/>
        <path id="Fill-94" d="M8.98,41.682a.6.6,0,0,1,.384.29c-.2,0-.4,0-.384-.29" transform="translate(-0.087 0.098)" fill="#def6fa" fill-rule="evenodd"/>
        <path id="Fill-96" d="M32.362,1.856l.258.014A.077.077,0,0,0,32.7,1.9a.458.458,0,0,0,.049.114c-.248.234-.311.018-.39-.16" transform="translate(-0.023 -0.01)" fill="#3586bf" fill-rule="evenodd"/>
        <path id="Fill-98" d="M41.715,8.8a.539.539,0,0,1-.288-.363c.257-.007.282.17.288.363" transform="translate(0.002 0.008)" fill="#dcf5fc" fill-rule="evenodd"/>
        <path id="Fill-100" d="M42.369,9.637a.566.566,0,0,1-.287-.389c.291-.014.293.184.287.389" transform="translate(0.003 0.01)" fill="#dcf5fc" fill-rule="evenodd"/>
        <path id="Fill-102" d="M36.758,4.156a.552.552,0,0,1-.4-.271c.2,0,.386,0,.4.271" transform="translate(-0.012 -0.005)" fill="#dcf5fc" fill-rule="evenodd"/>
        <path id="Fill-104" d="M43.028,10.583a.543.543,0,0,1-.273-.4c.294,0,.29.2.273.4" transform="translate(0.005 0.012)" fill="#dcf5fc" fill-rule="evenodd"/>
        <path id="Fill-106" d="M37.155,4.43a.553.553,0,0,1-.4-.275c.2-.007.394,0,.4.275" transform="translate(-0.011 -0.004)" fill="#dcf5fc" fill-rule="evenodd"/>
        <path id="Fill-108" d="M43.973,12.176a.527.527,0,0,1-.238-.41c.255.034.248.221.238.41" transform="translate(0.008 0.017)" fill="#dcf5fc" fill-rule="evenodd"/>
        <path id="Fill-110" d="M31.14,1.363c-.164.176-.224.07-.26-.1l.26.1" transform="translate(-0.027 -0.012)" fill="#3586bf" fill-rule="evenodd"/>
        <path id="Fill-112" d="M5.185,8.918c-.042.171-.015.4-.3.371a.5.5,0,0,1,.3-.371" transform="translate(-0.098 0.009)" fill="#3586bf" fill-rule="evenodd"/>
        <path id="Fill-114" d="M44.93,14.3c-.135-.053-.153-.163-.141-.288a.614.614,0,0,0,.115.04l.026.248" transform="translate(0.011 0.023)" fill="#398abf" fill-rule="evenodd"/>
        <path id="Fill-116" d="M44.277,33.771c-.022-.143-.039-.283.159-.314a.383.383,0,0,1-.159.314" transform="translate(0.009 0.076)" fill="#398abf" fill-rule="evenodd"/>
        <path id="Fill-118" d="M44.9,14.056a.6.6,0,0,1-.115-.04l-.014-.241a.262.262,0,0,1,.128.28" transform="translate(0.011 0.022)" fill="#dcf5fc" fill-rule="evenodd"/>
        <path id="Fill-120" d="M7.977,5.964c.016.173-.1.187-.227.188a.266.266,0,0,1,.227-.188" transform="translate(-0.091 0.001)" fill="#3586bf" fill-rule="evenodd"/>
        <path id="Fill-122" d="M3.616,35.7a.287.287,0,0,1,.156.254.231.231,0,0,1-.156-.254" transform="translate(-0.102 0.082)" fill="#def6fa" fill-rule="evenodd"/>
        <path id="Fill-124" d="M44.022,34.257c-.04-.137-.038-.251.149-.257a.293.293,0,0,1-.149.257" transform="translate(0.009 0.077)" fill="#398abf" fill-rule="evenodd"/>
        <path id="Fill-126" d="M37.691,4.831a.235.235,0,0,1-.225-.156.231.231,0,0,1,.225.156" transform="translate(-0.009 -0.003)" fill="#dcf5fc" fill-rule="evenodd"/>
        <path id="Fill-128" d="M5.347,8.686c0,.126-.015.236-.176.245a.3.3,0,0,1,.176-.245" transform="translate(-0.098 0.008)" fill="#3586bf" fill-rule="evenodd"/>
        <path id="Fill-130" d="M4.759,9.449c.024.1-.019.144-.112.157l.112-.157" transform="translate(-0.099 0.01)" fill="#3586bf" fill-rule="evenodd"/>
        <path id="Fill-132" d="M36.359,3.884l-.169-.115.169.115" transform="translate(-0.013 -0.005)" fill="#dcf5fc" fill-rule="evenodd"/>
        <path id="Fill-134" d="M36.09,3.719l-.135-.1.135.1" transform="translate(-0.013 -0.006)" fill="#dcf5fc" fill-rule="evenodd"/>
        <path id="Fill-136" d="M35.955,3.622l-.18-.113Z" transform="translate(-0.014 -0.006)" fill="#dcf5fc" fill-rule="evenodd"/>
        <path id="Fill-138" d="M35.688,3.464l-.144-.1.144.1" transform="translate(-0.014 -0.006)" fill="#dcf5fc" fill-rule="evenodd"/>
        <path id="Fill-140" d="M38.359,5.364l-.154-.124.154.124" transform="translate(-0.007 -0.001)" fill="#dcf5fc" fill-rule="evenodd"/>
        <path id="Fill-142" d="M37.832,4.945l-.146-.118.146.118" transform="translate(-0.009 -0.002)" fill="#dcf5fc" fill-rule="evenodd"/>
        <path id="Fill-144" d="M32.751,2.016A.464.464,0,0,1,32.7,1.9l.181.092a.563.563,0,0,1-.132.022" transform="translate(-0.022 -0.01)" fill="#dcf5fc" fill-rule="evenodd"/>
        <path id="Fill-146" d="M37.961,5.054l-.121-.1.121.1" transform="translate(-0.008 -0.002)" fill="#dcf5fc" fill-rule="evenodd"/>
        <path id="Fill-148" d="M44.749,13.7l-.1-.195.1.195" transform="translate(0.01 0.021)" fill="#dcf5fc" fill-rule="evenodd"/>
        <path id="Fill-150" d="M6.217,7.7c.03.1-.011.146-.117.13l.117-.13" transform="translate(-0.095 0.006)" fill="#3586bf" fill-rule="evenodd"/>
        <path id="Fill-152" d="M44.163,34a.143.143,0,0,1,.1-.18l-.1.18" transform="translate(0.009 0.077)" fill="#398abf" fill-rule="evenodd"/>
        <path id="Fill-154" d="M37.3,4.544l-.146-.117.146.117" transform="translate(-0.01 -0.003)" fill="#dcf5fc" fill-rule="evenodd"/>
        <path id="Fill-156" d="M43.983,34.352l-.06-.078.1-.009a.073.073,0,0,1-.042.087" transform="translate(0.008 0.078)" fill="#398abf" fill-rule="evenodd"/>
        <path id="Fill-158" d="M40.626,7.508l-.137-.141.137.141" transform="translate(-0.001 0.005)" fill="#dcf5fc" fill-rule="evenodd"/>
        <path id="Fill-160" d="M9.591,4.639c0,.1-.045.144-.146.121l.146-.121" transform="translate(-0.086 -0.003)" fill="#3586bf" fill-rule="evenodd"/>
        <path id="Fill-162" d="M3.763,35.941l.109.156-.109-.156" transform="translate(-0.101 0.083)" fill="#def6fa" fill-rule="evenodd"/>
        <path id="Fill-164" d="M38.215,5.247l-.172-.135.172.135" transform="translate(-0.008 -0.001)" fill="#dcf5fc" fill-rule="evenodd"/>
        <path id="Fill-166" d="M44.218,12.626l-.1-.185Z" transform="translate(0.009 0.019)" fill="#dcf5fc" fill-rule="evenodd"/>
        <path id="Fill-168" d="M5.1,37.812l.124.149L5.1,37.812" transform="translate(-0.098 0.088)" fill="#def6fa" fill-rule="evenodd"/>
        <path id="Fill-170" d="M5.223,37.962l.114.139-.114-.139" transform="translate(-0.097 0.088)" fill="#def6fa" fill-rule="evenodd"/>
        <path id="Fill-172" d="M8.111,5.84c.011.1-.032.146-.135.132l.135-.132" transform="translate(-0.09 0.001)" fill="#3586bf" fill-rule="evenodd"/>
        <path id="Fill-174" d="M8.259,5.713c0,.1-.048.141-.145.13l.145-.13" transform="translate(-0.09 0)" fill="#3586bf" fill-rule="evenodd"/>
        <path id="Fill-176" d="M8.918,5.172c0,.1-.038.145-.141.115l.141-.115" transform="translate(-0.088 -0.001)" fill="#3586bf" fill-rule="evenodd"/>
        <path id="Fill-178" d="M9.364,41.973l.149.123-.149-.123" transform="translate(-0.086 0.099)" fill="#def6fa" fill-rule="evenodd"/>
        <path id="Fill-180" d="M4.873,9.312c.038.106,0,.142-.108.127l.108-.127" transform="translate(-0.099 0.01)" fill="#3586bf" fill-rule="evenodd"/>
      </g>
    </g>
  </g>
</svg>
