<svg xmlns="http://www.w3.org/2000/svg" width="30" height="30" viewBox="0 0 30 30">
  <g id="Group_1800" data-name="Group 1800" transform="translate(-1214 0.001)">
    <path id="Subtraction_131" data-name="Subtraction 131" d="M27,30H3a3,3,0,0,1-3-3V3A3,3,0,0,1,3,0H27a3,3,0,0,1,3,3V27A3,3,0,0,1,27,30ZM15.3,4.464c-1.876,0-3.542.028-4.346.074a6.225,6.225,0,0,0-4.415,1.7,6.222,6.222,0,0,0-1.7,4.415c-.1,1.747-.1,6.946,0,8.693a6.194,6.194,0,0,0,1.7,4.414,6.248,6.248,0,0,0,4.415,1.7c.809.046,2.475.075,4.346.075s3.537-.029,4.346-.075a6.2,6.2,0,0,0,4.415-1.7,6.238,6.238,0,0,0,1.7-4.414c.1-1.746.1-6.942,0-8.688a6.2,6.2,0,0,0-1.7-4.415,6.239,6.239,0,0,0-4.415-1.7C18.841,4.492,17.176,4.464,15.3,4.464Zm1.865,19.183h0c-.395,0-.775,0-1.111-.007-.276,0-.534-.005-.752-.005s-.468,0-.736.005c-.328,0-.7.007-1.087.007a15.109,15.109,0,0,1-4.388-.435,3.558,3.558,0,0,1-2-2c-.472-1.19-.446-3.76-.428-5.46,0-.275.005-.533.005-.751s0-.468-.005-.736c-.016-1.707-.041-4.286.428-5.474a3.559,3.559,0,0,1,2-2,14.844,14.844,0,0,1,4.348-.436c.4,0,.777,0,1.112.007.275,0,.533.005.751.005s.468,0,.736-.005c.328,0,.7-.007,1.087-.007a15.1,15.1,0,0,1,4.387.435,3.563,3.563,0,0,1,2,2c.472,1.19.446,3.759.428,5.459,0,.275-.005.533-.005.751s0,.476.005.749c.017,1.7.043,4.276-.428,5.462a3.563,3.563,0,0,1-2,2A14.839,14.839,0,0,1,17.165,23.648ZM15.3,9.6A5.4,5.4,0,1,0,20.7,15,5.408,5.408,0,0,0,15.3,9.6Zm5.622-1.48a1.26,1.26,0,1,0,1.26,1.26A1.261,1.261,0,0,0,20.924,8.116ZM15.3,18.51A3.512,3.512,0,1,1,18.814,15,3.516,3.516,0,0,1,15.3,18.51Z" transform="translate(1214.002)" fill="#fff"/>
  </g>
</svg>
