<svg xmlns="http://www.w3.org/2000/svg" width="48" height="48" viewBox="0 0 48 48">
  <g id="Group_19613" data-name="Group 19613" transform="translate(-273 -317)">
    <circle id="Ellipse_2125" data-name="Ellipse 2125" cx="24" cy="24" r="24" transform="translate(273 317)" fill="#fff" opacity="0.15"/>
    <g id="payments_black_24dp" transform="translate(285 329)">
      <path id="Path_13483" data-name="Path 13483" d="M0,0H24V24H0Z" fill="none"/>
      <path id="Path_13484" data-name="Path 13484" d="M19,14V6a2.006,2.006,0,0,0-2-2H3A2.006,2.006,0,0,0,1,6v8a2.006,2.006,0,0,0,2,2H17A2.006,2.006,0,0,0,19,14Zm-9-1a3,3,0,1,1,3-3A3,3,0,0,1,10,13ZM23,7V18a2.006,2.006,0,0,1-2,2H4V18H21V7Z" transform="translate(0 0)" fill="#fff"/>
    </g>
  </g>
</svg>
