<svg xmlns="http://www.w3.org/2000/svg" xmlns:xlink="http://www.w3.org/1999/xlink" width="639" height="639" viewBox="0 0 639 639">
  <defs>
    <linearGradient id="linear-gradient" x1="-0.06" x2="0.5" y2="1" gradientUnits="objectBoundingBox">
      <stop offset="0" stop-color="#f27021"/>
      <stop offset="1" stop-color="#f27021" stop-opacity="0"/>
    </linearGradient>
  </defs>
  <g id="Group_15756" data-name="Group 15756" transform="translate(150 150.236)" opacity="0.4">
    <g id="Group_15748" data-name="Group 15748" transform="translate(72.998 34.999)" opacity="0.3">
      <path id="Union_8" data-name="Union 8" d="M216,186a6,6,0,1,1,6,6A6,6,0,0,1,216,186Zm-36,0a6,6,0,1,1,6,6A6,6,0,0,1,180,186Zm-36,0a6,6,0,1,1,6,6A6,6,0,0,1,144,186Zm-36,0a6,6,0,1,1,6,6A6,6,0,0,1,108,186Zm-36,0a6,6,0,1,1,6,6A6,6,0,0,1,72,186Zm-36,0a6,6,0,1,1,6,6A6,6,0,0,1,36,186ZM0,186a6,6,0,1,1,6,6A6,6,0,0,1,0,186Zm216-36a6,6,0,1,1,6,6A6,6,0,0,1,216,150Zm-36,0a6,6,0,1,1,6,6A6,6,0,0,1,180,150Zm-36,0a6,6,0,1,1,6,6A6,6,0,0,1,144,150Zm-36,0a6,6,0,1,1,6,6A6,6,0,0,1,108,150Zm-36,0a6,6,0,1,1,6,6A6,6,0,0,1,72,150Zm-36,0a6,6,0,1,1,6,6A6,6,0,0,1,36,150ZM0,150a6,6,0,1,1,6,6A6,6,0,0,1,0,150Zm216-36a6,6,0,1,1,6,6A6,6,0,0,1,216,114Zm-36,0a6,6,0,1,1,6,6A6,6,0,0,1,180,114Zm-36,0a6,6,0,1,1,6,6A6,6,0,0,1,144,114Zm-36,0a6,6,0,1,1,6,6A6,6,0,0,1,108,114Zm-36,0a6,6,0,1,1,6,6A6,6,0,0,1,72,114Zm-36,0a6,6,0,1,1,6,6A6,6,0,0,1,36,114ZM0,114a6,6,0,1,1,6,6A6,6,0,0,1,0,114ZM216,78a6,6,0,1,1,6,6A6,6,0,0,1,216,78Zm-36,0a6,6,0,1,1,6,6A6,6,0,0,1,180,78Zm-36,0a6,6,0,1,1,6,6A6,6,0,0,1,144,78Zm-36,0a6,6,0,1,1,6,6A6,6,0,0,1,108,78ZM72,78a6,6,0,1,1,6,6A6,6,0,0,1,72,78ZM36,78a6,6,0,1,1,6,6A6,6,0,0,1,36,78ZM0,78a6,6,0,1,1,6,6A6,6,0,0,1,0,78ZM216,42a6,6,0,1,1,6,6A6,6,0,0,1,216,42Zm-36,0a6,6,0,1,1,6,6A6,6,0,0,1,180,42Zm-36,0a6,6,0,1,1,6,6A6,6,0,0,1,144,42Zm-36,0a6,6,0,1,1,6,6A6,6,0,0,1,108,42ZM72,42a6,6,0,1,1,6,6A6,6,0,0,1,72,42ZM36,42a6,6,0,1,1,6,6A6,6,0,0,1,36,42ZM0,42a6,6,0,1,1,6,6A6,6,0,0,1,0,42ZM216,6a6,6,0,1,1,6,6A6,6,0,0,1,216,6ZM180,6a6,6,0,1,1,6,6A6,6,0,0,1,180,6ZM144,6a6,6,0,1,1,6,6A6,6,0,0,1,144,6ZM108,6a6,6,0,1,1,6,6A6,6,0,0,1,108,6ZM72,6a6,6,0,1,1,6,6A6,6,0,0,1,72,6ZM36,6a6,6,0,1,1,6,6A6,6,0,0,1,36,6ZM0,6a6,6,0,1,1,6,6A6,6,0,0,1,0,6Z" transform="translate(0.002 -0.235)" fill="url(#linear-gradient)"/>
    </g>
    <circle id="Ellipse_1718" data-name="Ellipse 1718" cx="169.5" cy="169.5" r="169.5" transform="translate(0 -0.236)" fill="#f27021" opacity="0.03"/>
  </g>
</svg>
