<svg xmlns="http://www.w3.org/2000/svg" width="20" height="20" viewBox="0 0 20 20">
  <g id="Group_21628" data-name="Group 21628" transform="translate(0 0)">
    <path id="Subtraction_130" data-name="Subtraction 130" d="M18,20H2a2,2,0,0,1-2-2V2A2,2,0,0,1,2,0H18a2,2,0,0,1,2,2V18A2,2,0,0,1,18,20ZM10.208,5a43.63,43.63,0,0,0-5.719.308,1.841,1.841,0,0,0-1.294,1.3,19.38,19.38,0,0,0-.306,3.545A19.393,19.393,0,0,0,3.195,13.7,1.838,1.838,0,0,0,4.489,15a43.63,43.63,0,0,0,5.719.308A43.618,43.618,0,0,0,15.925,15a1.838,1.838,0,0,0,1.294-1.3,19.393,19.393,0,0,0,.306-3.546A19.38,19.38,0,0,0,17.22,6.61a1.841,1.841,0,0,0-1.294-1.3A43.618,43.618,0,0,0,10.208,5Zm-1.5,7.332V7.978l3.826,2.176L8.712,12.33Z" transform="translate(0 0)" fill="#fff"/>
  </g>
</svg>
