<svg xmlns="http://www.w3.org/2000/svg" width="47" height="31" viewBox="0 0 47 31">
  <g id="Group_21559" data-name="Group 21559" transform="translate(-1255 -1798)">
    <circle id="Ellipse_2276" data-name="Ellipse 2276" cx="1.5" cy="1.5" r="1.5" transform="translate(1255 1806)" fill="#006ccc"/>
    <circle id="Ellipse_2277" data-name="Ellipse 2277" cx="1.5" cy="1.5" r="1.5" transform="translate(1264 1800)" fill="#006ccc"/>
    <circle id="Ellipse_2278" data-name="Ellipse 2278" cx="1.5" cy="1.5" r="1.5" transform="translate(1261 1815)" fill="#006ccc"/>
    <circle id="Ellipse_2279" data-name="Ellipse 2279" cx="1.5" cy="1.5" r="1.5" transform="translate(1270 1809)" fill="#006ccc"/>
    <circle id="Ellipse_2280" data-name="Ellipse 2280" cx="1.5" cy="1.5" r="1.5" transform="translate(1267 1824)" fill="#006ccc"/>
    <circle id="Ellipse_2281" data-name="Ellipse 2281" cx="1.5" cy="1.5" r="1.5" transform="translate(1275 1818)" fill="#006ccc"/>
    <circle id="Ellipse_2282" data-name="Ellipse 2282" cx="1.5" cy="1.5" r="1.5" transform="translate(1281 1826)" fill="#006ccc"/>
    <circle id="Ellipse_2283" data-name="Ellipse 2283" cx="1.5" cy="1.5" r="1.5" transform="translate(1290 1821)" fill="#006ccc"/>
    <circle id="Ellipse_2284" data-name="Ellipse 2284" cx="1.5" cy="1.5" r="1.5" transform="translate(1284 1812)" fill="#006ccc"/>
    <circle id="Ellipse_2288" data-name="Ellipse 2288" cx="1.5" cy="1.5" r="1.5" transform="translate(1299 1815)" fill="#006ccc"/>
    <circle id="Ellipse_2285" data-name="Ellipse 2285" cx="1.5" cy="1.5" r="1.5" transform="translate(1278 1804)" fill="#006ccc"/>
    <circle id="Ellipse_2286" data-name="Ellipse 2286" cx="1.5" cy="1.5" r="1.5" transform="translate(1287 1798)" fill="#006ccc"/>
    <circle id="Ellipse_2287" data-name="Ellipse 2287" cx="1.5" cy="1.5" r="1.5" transform="translate(1293 1806)" fill="#006ccc"/>
  </g>
</svg>
