<svg id="Group_19747" data-name="Group 19747" xmlns="http://www.w3.org/2000/svg" xmlns:xlink="http://www.w3.org/1999/xlink" width="627" height="176" viewBox="0 0 627 176">
  <defs>
    <linearGradient id="linear-gradient" x2="1" y2="1" gradientUnits="objectBoundingBox">
      <stop offset="0" stop-color="#f9df8d"/>
      <stop offset="1" stop-color="#fdb940"/>
    </linearGradient>
    <linearGradient id="linear-gradient-2" x2="1" y2="1" gradientUnits="objectBoundingBox">
      <stop offset="0" stop-color="#fdb940"/>
      <stop offset="1" stop-color="#fdb940"/>
    </linearGradient>
  </defs>
  <g id="Group_19746" data-name="Group 19746" transform="translate(4 4)">
    <g id="Group_19515" data-name="Group 19515">
      <g id="Ellipse_2071" data-name="Ellipse 2071" fill="#fff" stroke="#707070" stroke-width="1">
        <circle cx="12" cy="12" r="12" stroke="none"/>
        <circle cx="12" cy="12" r="11.5" fill="none"/>
      </g>
      <g id="Ellipse_2072" data-name="Ellipse 2072" transform="translate(0 48)" fill="#fff" stroke="#707070" stroke-width="1">
        <circle cx="12" cy="12" r="12" stroke="none"/>
        <circle cx="12" cy="12" r="11.5" fill="none"/>
      </g>
      <g id="Ellipse_2073" data-name="Ellipse 2073" transform="translate(0 96)" fill="#fff" stroke="#707070" stroke-width="1">
        <circle cx="12" cy="12" r="12" stroke="none"/>
        <circle cx="12" cy="12" r="11.5" fill="none"/>
      </g>
      <g id="Ellipse_2074" data-name="Ellipse 2074" transform="translate(0 144)" fill="#fff" stroke="#707070" stroke-width="1">
        <circle cx="12" cy="12" r="12" stroke="none"/>
        <circle cx="12" cy="12" r="11.5" fill="none"/>
      </g>
    </g>
  </g>
  <g id="Group_18597" data-name="Group 18597" transform="translate(0 -1830)">
    <g id="Group_18522" data-name="Group 18522" transform="translate(0 72)">
      <text id="One_Tap_Investments_Automated_Trading_Much_more" data-name="One Tap Investments, Automated Trading &amp; Much more" transform="translate(44 1903)" fill="#fff" font-size="18" font-family="RoundedMplus1c-Regular, 'Rounded Mplus \31 c'" letter-spacing="0.004em" opacity="0.8"><tspan x="0" y="19">One Tap Investments, Automated Trading &amp; Much more</tspan></text>
      <g id="check_circle_black_24dp" transform="translate(0 1902)">
        <path id="Path_12133" data-name="Path 12133" d="M0,0H32V32H0Z" fill="none"/>
        <path id="Path_12134" data-name="Path 12134" d="M15.333,2A13.333,13.333,0,1,0,28.667,15.333,13.338,13.338,0,0,0,15.333,2ZM12.667,22,6,15.333l1.88-1.88,4.787,4.773,10.12-10.12L24.667,10Z" transform="translate(0.667 0.667)" stroke="rgba(0,0,0,0)" stroke-width="1" fill="url(#linear-gradient)"/>
      </g>
    </g>
    <g id="Group_15732" data-name="Group 15732" transform="translate(0 60)">
      <text id="Powerful_Research_Tools_Recommendations" data-name="Powerful Research Tools &amp; Recommendations" transform="translate(44 1889)" fill="#fff" font-size="18" font-family="RoundedMplus1c-Regular, 'Rounded Mplus \31 c'" letter-spacing="0.004em" opacity="0.8"><tspan x="0" y="0">Powerful Research Tools &amp; Recommendations</tspan></text>
      <g id="check_circle_black_24dp-2" data-name="check_circle_black_24dp" transform="translate(0 1866)">
        <path id="Path_12133-2" data-name="Path 12133" d="M0,0H32V32H0Z" fill="none"/>
        <path id="Path_12134-2" data-name="Path 12134" d="M15.333,2A13.333,13.333,0,1,0,28.667,15.333,13.338,13.338,0,0,0,15.333,2ZM12.667,22,6,15.333l1.88-1.88,4.787,4.773,10.12-10.12L24.667,10Z" transform="translate(0.667 0.667)" stroke="rgba(0,0,0,0)" stroke-width="1" fill="url(#linear-gradient-2)"/>
      </g>
    </g>
    <g id="Group_15733" data-name="Group 15733" transform="translate(0 48)">
      <text id="Upto_4X_Margin_Trading_Facility_" data-name="Upto 4X Margin Trading Facility " transform="translate(44 1834)" fill="#fff" font-size="18" font-family="RoundedMplus1c-Regular, 'Rounded Mplus \31 c'" letter-spacing="0.004em" opacity="0.8"><tspan x="0" y="19">Upto 4X Margin Trading Facility </tspan></text>
      <g id="check_circle_black_24dp-3" data-name="check_circle_black_24dp" transform="translate(0 1830)">
        <path id="Path_12133-3" data-name="Path 12133" d="M0,0H32V32H0Z" fill="none"/>
        <path id="Path_12134-3" data-name="Path 12134" d="M15.333,2A13.333,13.333,0,1,0,28.667,15.333,13.338,13.338,0,0,0,15.333,2ZM12.667,22,6,15.333l1.88-1.88,4.787,4.773,10.12-10.12L24.667,10Z" transform="translate(0.667 0.667)" stroke="rgba(0,0,0,0)" stroke-width="1" fill="url(#linear-gradient-2)"/>
      </g>
    </g>
    <g id="Group_15737" data-name="Group 15737" transform="translate(0 -37)">
      <text id="Choose_from_20_Investing_options_" data-name="Choose from 20+ Investing options  " transform="translate(44 1890)" fill="#fff" font-size="18" font-family="RoundedMplus1c-Regular, 'Rounded Mplus \31 c'" letter-spacing="0.004em" opacity="0.8"><tspan x="0" y="0" xml:space="preserve">Choose from 20+ Investing options  </tspan></text>
      <g id="check_circle_black_24dp-4" data-name="check_circle_black_24dp" transform="translate(0 1867)">
        <path id="Path_12133-4" data-name="Path 12133" d="M0,0H32V32H0Z" fill="none"/>
        <path id="Path_12134-4" data-name="Path 12134" d="M15.333,2A13.333,13.333,0,1,0,28.667,15.333,13.338,13.338,0,0,0,15.333,2ZM12.667,22,6,15.333l1.88-1.88,4.787,4.773,10.12-10.12L24.667,10Z" transform="translate(0.667 0.667)" stroke="rgba(0,0,0,0)" stroke-width="1" fill="url(#linear-gradient-2)"/>
      </g>
    </g>
  </g>
</svg>
