<svg xmlns="http://www.w3.org/2000/svg" xmlns:xlink="http://www.w3.org/1999/xlink" width="256" height="83" viewBox="0 0 256 83">
  <defs>
    <filter id="Rectangle_5421" x="0" y="0" width="256" height="83" filterUnits="userSpaceOnUse">
      <feOffset dy="1" input="SourceAlpha"/>
      <feGaussianBlur stdDeviation="6" result="blur"/>
      <feFlood flood-opacity="0.161"/>
      <feComposite operator="in" in2="blur"/>
      <feComposite in="SourceGraphic"/>
    </filter>
  </defs>
  <g id="Group_18482" data-name="Group 18482" transform="translate(18.439 16.745)">
    <g id="Group_21424" data-name="Group 21424">
      <g transform="matrix(1, 0, 0, 1, -18.44, -16.74)" filter="url(#Rectangle_5421)">
        <rect id="Rectangle_5421-2" data-name="Rectangle 5421" width="220" height="47" rx="8" transform="translate(18 17)" fill="#fffaf1"/>
      </g>
      <g id="Group_18488" data-name="Group 18488" transform="translate(11.491 7.661)">
        <g id="Group_18487" data-name="Group 18487" transform="translate(0 0)">
          <rect id="Rectangle_5425" data-name="Rectangle 5425" width="32" height="33" rx="16" transform="translate(0.07 -0.405)" fill="#f5c714" opacity="0.13"/>
          <path id="Path_12824" data-name="Path 12824" d="M21305.625-20736.984h7.355l2.645,6.732h-11.984Z" transform="translate(-21292.424 20745.346)" fill="#f2c30d"/>
          <path id="Path_12825" data-name="Path 12825" d="M21305.242-20722.627l-1.068,4.713-1.242-5.209h-8.477l-1.611,7.113h22.447l-2.234-7.113h-7.814Z" transform="translate(-21287.004 20738.387)" fill="#f2c30d"/>
        </g>
        <text id="Gold_" data-name="Gold " transform="translate(55.07 20.595)" fill="#303030" font-size="10" font-family="Poppins-Medium, Poppins" font-weight="500" letter-spacing="-0.01em"><tspan x="-12" y="0">Gold </tspan></text>
      </g>
      <g id="Group_18501" data-name="Group 18501" transform="translate(-18345.131 17.239)">
        <text id="_4_567" data-name="+4,567" transform="translate(18538.691 11.017)" fill="#00bc8d" font-size="10" font-family="Poppins-Regular, Poppins" letter-spacing="-0.01em"><tspan x="-32" y="0">+4,567</tspan></text>
        <text id="_45_890" data-name="₹45,890" transform="translate(18501.691 11.017)" fill="#303030" font-size="10" font-family="Poppins-Regular, Poppins" letter-spacing="-0.01em"><tspan x="-39" y="0">₹45,890</tspan></text>
      </g>
    </g>
  </g>
</svg>
