<svg xmlns="http://www.w3.org/2000/svg" width="14" height="19" viewBox="0 0 14 19">
  <g id="Group_26579" data-name="Group 26579" transform="translate(-1155 -4388)">
    <g id="Subtraction_122" data-name="Subtraction 122" transform="translate(1155 4388)" fill="none">
      <path d="M2.9,7H0L7,0l7,7H11.1L7,2.9,2.9,7Z" stroke="none"/>
      <path d="M 2.896330118179321 7 L -8.881784197001252e-16 6.999879837036133 L 7.000529766082764 -4.440892098500626e-16 L 14 6.999529838562012 L 11.10472011566162 6.999879837036133 L 7.000529766082764 2.895839929580688 L 2.896330118179321 7 Z" stroke="none" fill="#f9df8d"/>
    </g>
    <g id="Subtraction_120" data-name="Subtraction 120" transform="translate(1155 4394)" fill="none">
      <path d="M2.9,7H0L7,0l7,7H11.1L7,2.9,2.9,7Z" stroke="none"/>
      <path d="M 2.896330118179321 7 L -8.881784197001252e-16 6.999879837036133 L 7.000529766082764 -4.440892098500626e-16 L 14 6.999529838562012 L 11.10472011566162 6.999879837036133 L 7.000529766082764 2.895839929580688 L 2.896330118179321 7 Z" stroke="none" fill="#f9df8d"/>
    </g>
    <g id="Subtraction_121" data-name="Subtraction 121" transform="translate(1155 4400)" fill="none">
      <path d="M2.9,7H0L7,0l7,7H11.1L7,2.9,2.9,7Z" stroke="none"/>
      <path d="M 2.896330118179321 7 L -8.881784197001252e-16 6.999879837036133 L 7.000529766082764 -4.440892098500626e-16 L 14 6.999529838562012 L 11.10472011566162 6.999879837036133 L 7.000529766082764 2.895839929580688 L 2.896330118179321 7 Z" stroke="none" fill="#f9df8d"/>
    </g>
  </g>
</svg>
