<svg xmlns="http://www.w3.org/2000/svg" width="36" height="36" viewBox="0 0 36 36">
  <g id="Group_19504" data-name="Group 19504" transform="translate(-20993 14544.059)">
    <path id="Path_12847" data-name="Path 12847" d="M22.591,3H5.449A2.456,2.456,0,0,0,3,5.449V22.591A2.456,2.456,0,0,0,5.449,25.04H22.591a2.456,2.456,0,0,0,2.449-2.449V5.449A2.456,2.456,0,0,0,22.591,3ZM10.347,20.142H7.9V14.02h2.449Zm4.9,0H12.8V16.469h2.449Zm0-6.122H12.8V11.571h2.449Zm4.9,6.122H17.693V7.9h2.449Z" transform="translate(20996.98 -14541)"/>
    <rect id="Rectangle_5816" data-name="Rectangle 5816" width="36" height="36" transform="translate(20993 -14544.059)" fill="none"/>
  </g>
</svg>
