<svg xmlns="http://www.w3.org/2000/svg" width="24" height="32" viewBox="0 0 24 32">
  <g id="Group_26581" data-name="Group 26581" transform="translate(-1300 -4652)">
    <g id="Subtraction_115" data-name="Subtraction 115" transform="translate(1300 4652)" fill="none">
      <path d="M4.965,12H0L12,0,24,12H19.037L12,4.964,4.965,12Z" stroke="none"/>
      <path d="M 4.965139865875244 12 L -1.77635683940025e-15 11.99979972839355 L 12.00090026855469 -8.881784197001252e-16 L 24 11.99919033050537 L 19.03665924072266 11.99979972839355 L 12.00090026855469 4.964300155639648 L 4.965139865875244 12 Z" stroke="none" fill="#f9df8d"/>
    </g>
    <g id="Subtraction_117" data-name="Subtraction 117" transform="translate(1300 4661)" fill="none">
      <path d="M4.965,12H0L12,0,24,12H19.037L12,4.964,4.965,12Z" stroke="none"/>
      <path d="M 4.965139865875244 12 L -1.77635683940025e-15 11.99979972839355 L 12.00090026855469 -8.881784197001252e-16 L 24 11.99919033050537 L 19.03665924072266 11.99979972839355 L 12.00090026855469 4.964300155639648 L 4.965139865875244 12 Z" stroke="none" fill="#f9df8d"/>
    </g>
    <g id="Subtraction_119" data-name="Subtraction 119" transform="translate(1300 4672)" fill="none">
      <path d="M4.965,12H0L12,0,24,12H19.037L12,4.964,4.965,12Z" stroke="none"/>
      <path d="M 4.965139865875244 12 L -1.77635683940025e-15 11.99979972839355 L 12.00090026855469 -8.881784197001252e-16 L 24 11.99919033050537 L 19.03665924072266 11.99979972839355 L 12.00090026855469 4.964300155639648 L 4.965139865875244 12 Z" stroke="none" fill="#f9df8d"/>
    </g>
  </g>
</svg>
