<svg xmlns="http://www.w3.org/2000/svg" xmlns:xlink="http://www.w3.org/1999/xlink" width="171.98" height="125.475" viewBox="0 0 171.98 125.475">
  <defs>
    <filter id="Union_82" x="0" y="0" width="171.98" height="125.475" filterUnits="userSpaceOnUse">
      <feOffset dy="1" input="SourceAlpha"/>
      <feGaussianBlur stdDeviation="8" result="blur"/>
      <feFlood flood-color="#7128d8" flood-opacity="0.369"/>
      <feComposite operator="in" in2="blur"/>
      <feComposite in="SourceGraphic"/>
    </filter>
  </defs>
  <g id="Group_21652" data-name="Group 21652" transform="translate(-1063 -210.416)">
    <g id="Group_21568" data-name="Group 21568" transform="translate(1094.559 236.418)">
      <g transform="matrix(1, 0, 0, 1, -31.56, -26)" filter="url(#Union_82)">
        <path id="Union_82-2" data-name="Union 82" d="M19624,9978.055a10,10,0,0,1-10-10V9963.7l-7.561-4.536,7.561-4.537v-44.044a10,10,0,0,1,10-10h96.418a10.008,10.008,0,0,1,10,10v57.474a10,10,0,0,1-10,10Z" transform="translate(-19582.44 -9877.58)" fill="#fff"/>
      </g>
      <text id="QVT_Score" data-name="QVT Score" transform="translate(10.709 16.768)" fill="#1e1c57" font-size="11" font-family="RoundedMplus1c-Bold, 'Rounded Mplus \31 c'" font-weight="700" letter-spacing="-0.01em"><tspan x="0" y="0">QVT Score</tspan></text>
    </g>
    <g id="Group_21651" data-name="Group 21651">
      <rect id="Rectangle_6139" data-name="Rectangle 6139" width="24" height="34" rx="3" transform="translate(1105 266)" fill="#0dd888"/>
      <text id="_57" data-name="57" transform="translate(1110.268 280.553)" fill="#fff" font-size="9" font-family="RoundedMplus1c-ExtraBold, 'Rounded Mplus \31 c'" font-weight="800" letter-spacing="-0.01em"><tspan x="0" y="0">57</tspan></text>
      <text id="Quality" transform="translate(1110 295.553)" fill="#fff" font-size="4" font-family="RoundedMplus1c-Bold, 'Rounded Mplus \31 c'" font-weight="700" letter-spacing="-0.01em"><tspan x="0" y="0">Quality</tspan></text>
    </g>
    <g id="Group_21649" data-name="Group 21649">
      <rect id="Rectangle_6140" data-name="Rectangle 6140" width="24" height="34" rx="3" transform="translate(1141 266)" fill="#f5d508"/>
      <text id="_36" data-name="36" transform="translate(1147.268 280.553)" fill="#fff" font-size="9" font-family="RoundedMplus1c-ExtraBold, 'Rounded Mplus \31 c'" font-weight="800" letter-spacing="-0.01em"><tspan x="0" y="0">36</tspan></text>
      <text id="Valuation" transform="translate(1144 295.553)" fill="#fff" font-size="4" font-family="RoundedMplus1c-Bold, 'Rounded Mplus \31 c'" font-weight="700" letter-spacing="-0.01em"><tspan x="0" y="0">Valuation</tspan></text>
    </g>
    <g id="Group_21650" data-name="Group 21650">
      <rect id="Rectangle_6141" data-name="Rectangle 6141" width="24" height="34" rx="3" transform="translate(1177 266)" fill="#f5d508"/>
      <text id="_49" data-name="49" transform="translate(1183.268 280.553)" fill="#fff" font-size="9" font-family="RoundedMplus1c-ExtraBold, 'Rounded Mplus \31 c'" font-weight="800" letter-spacing="-0.01em"><tspan x="0" y="0">49</tspan></text>
      <text id="Technical" transform="translate(1180 295.553)" fill="#fff" font-size="4" font-family="RoundedMplus1c-Bold, 'Rounded Mplus \31 c'" font-weight="700" letter-spacing="-0.01em"><tspan x="0" y="0">Technical</tspan></text>
    </g>
  </g>
</svg>
