<svg xmlns="http://www.w3.org/2000/svg" width="109" height="176.08" viewBox="0 0 109 176.08">
  <g id="Group_21419" data-name="Group 21419" transform="translate(-1167 -1819)">
    <g id="Group_19777" data-name="Group 19777" transform="translate(45.417 69)">
      <text id="_" data-name="%" transform="translate(1191.583 1899)" fill="#f2b040" font-size="46" font-family="RoundedMplus1c-Medium, 'Rounded Mplus \31 c'" font-weight="500" letter-spacing="0.004em"><tspan x="0" y="0">%</tspan></text>
      <g id="Group_19499" data-name="Group 19499" transform="translate(1156.235 1873.385)" opacity="0.5">
        <circle id="Ellipse_2061" data-name="Ellipse 2061" cx="1.253" cy="1.253" r="1.253" transform="translate(0 0)" fill="#006ccc"/>
        <circle id="Ellipse_2062" data-name="Ellipse 2062" cx="1.253" cy="1.253" r="1.253" transform="translate(0 6.68)" fill="#006ccc"/>
        <circle id="Ellipse_2064" data-name="Ellipse 2064" cx="1.253" cy="1.253" r="1.253" transform="translate(0 12.526)" fill="#006ccc"/>
        <circle id="Ellipse_2068" data-name="Ellipse 2068" cx="1.253" cy="1.253" r="1.253" transform="translate(0 18.371)" fill="#006ccc"/>
        <circle id="Ellipse_2065" data-name="Ellipse 2065" cx="1.253" cy="1.253" r="1.253" transform="translate(5.01 12.526)" fill="#006ccc"/>
        <circle id="Ellipse_2067" data-name="Ellipse 2067" cx="1.253" cy="1.253" r="1.253" transform="translate(5.01 18.371)" fill="#006ccc"/>
        <circle id="Ellipse_2066" data-name="Ellipse 2066" cx="1.253" cy="1.253" r="1.253" transform="translate(10.856 12.526)" fill="#006ccc"/>
        <circle id="Ellipse_2069" data-name="Ellipse 2069" cx="1.253" cy="1.253" r="1.253" transform="translate(10.856 18.371)" fill="#006ccc"/>
        <circle id="Ellipse_2070" data-name="Ellipse 2070" cx="1.253" cy="1.253" r="1.253" transform="translate(15.866 18.371)" fill="#006ccc"/>
        <circle id="Ellipse_2063" data-name="Ellipse 2063" cx="1.253" cy="1.253" r="1.253" transform="translate(5.01 6.68)" fill="#006ccc"/>
      </g>
      <g id="Group_19500" data-name="Group 19500" transform="translate(1169.519 1897.183) rotate(90)" opacity="0.5">
        <circle id="Ellipse_2061-2" data-name="Ellipse 2061" cx="1.253" cy="1.253" r="1.253" transform="translate(0 0)" fill="#006ccc"/>
        <circle id="Ellipse_2062-2" data-name="Ellipse 2062" cx="1.253" cy="1.253" r="1.253" transform="translate(0 6.68)" fill="#006ccc"/>
        <circle id="Ellipse_2064-2" data-name="Ellipse 2064" cx="1.253" cy="1.253" r="1.253" transform="translate(0 12.526)" fill="#006ccc"/>
        <circle id="Ellipse_2068-2" data-name="Ellipse 2068" cx="1.253" cy="1.253" r="1.253" transform="translate(0 18.371)" fill="#006ccc"/>
        <circle id="Ellipse_2065-2" data-name="Ellipse 2065" cx="1.253" cy="1.253" r="1.253" transform="translate(5.01 12.526)" fill="#006ccc"/>
        <circle id="Ellipse_2067-2" data-name="Ellipse 2067" cx="1.253" cy="1.253" r="1.253" transform="translate(5.01 18.371)" fill="#006ccc"/>
        <circle id="Ellipse_2066-2" data-name="Ellipse 2066" cx="1.253" cy="1.253" r="1.253" transform="translate(10.856 12.526)" fill="#006ccc"/>
        <circle id="Ellipse_2069-2" data-name="Ellipse 2069" cx="1.253" cy="1.253" r="1.253" transform="translate(10.856 18.371)" fill="#006ccc"/>
        <circle id="Ellipse_2070-2" data-name="Ellipse 2070" cx="1.253" cy="1.253" r="1.253" transform="translate(15.866 18.371)" fill="#006ccc"/>
        <circle id="Ellipse_2063-2" data-name="Ellipse 2063" cx="1.253" cy="1.253" r="1.253" transform="translate(5.01 6.68)" fill="#006ccc"/>
      </g>
      <g id="Group_21421" data-name="Group 21421" transform="translate(0 -2)">
        <g id="Group_19499-2" data-name="Group 19499" transform="translate(1156.235 1885.91)" opacity="0.5">
          <circle id="Ellipse_2061-3" data-name="Ellipse 2061" cx="1.253" cy="1.253" r="1.253" transform="translate(0)" fill="#006ccc"/>
          <circle id="Ellipse_2062-3" data-name="Ellipse 2062" cx="1.253" cy="1.253" r="1.253" transform="translate(0 6.68)" fill="#006ccc"/>
          <circle id="Ellipse_2064-3" data-name="Ellipse 2064" cx="1.253" cy="1.253" r="1.253" transform="translate(0 12.526)" fill="#006ccc"/>
          <circle id="Ellipse_2068-3" data-name="Ellipse 2068" cx="1.253" cy="1.253" r="1.253" transform="translate(0 18.371)" fill="#006ccc"/>
          <circle id="Ellipse_2065-3" data-name="Ellipse 2065" cx="1.253" cy="1.253" r="1.253" transform="translate(5.01 12.526)" fill="#006ccc"/>
          <circle id="Ellipse_2067-3" data-name="Ellipse 2067" cx="1.253" cy="1.253" r="1.253" transform="translate(5.01 18.371)" fill="#006ccc"/>
          <circle id="Ellipse_2066-3" data-name="Ellipse 2066" cx="1.253" cy="1.253" r="1.253" transform="translate(10.856 12.526)" fill="#006ccc"/>
          <circle id="Ellipse_2069-3" data-name="Ellipse 2069" cx="1.253" cy="1.253" r="1.253" transform="translate(10.856 18.371)" fill="#006ccc"/>
          <circle id="Ellipse_2070-3" data-name="Ellipse 2070" cx="1.253" cy="1.253" r="1.253" transform="translate(15.866 18.371)" fill="#006ccc"/>
          <circle id="Ellipse_2063-3" data-name="Ellipse 2063" cx="1.253" cy="1.253" r="1.253" transform="translate(5.01 6.68)" fill="#006ccc"/>
        </g>
        <g id="Group_19500-2" data-name="Group 19500" transform="translate(1169.519 1909.709) rotate(90)" opacity="0.5">
          <circle id="Ellipse_2061-4" data-name="Ellipse 2061" cx="1.253" cy="1.253" r="1.253" transform="translate(0 0)" fill="#006ccc"/>
          <circle id="Ellipse_2062-4" data-name="Ellipse 2062" cx="1.253" cy="1.253" r="1.253" transform="translate(0 6.68)" fill="#006ccc"/>
          <circle id="Ellipse_2064-4" data-name="Ellipse 2064" cx="1.253" cy="1.253" r="1.253" transform="translate(0 12.526)" fill="#006ccc"/>
          <circle id="Ellipse_2068-4" data-name="Ellipse 2068" cx="1.253" cy="1.253" r="1.253" transform="translate(0 18.371)" fill="#006ccc"/>
          <circle id="Ellipse_2065-4" data-name="Ellipse 2065" cx="1.253" cy="1.253" r="1.253" transform="translate(5.01 12.526)" fill="#006ccc"/>
          <circle id="Ellipse_2067-4" data-name="Ellipse 2067" cx="1.253" cy="1.253" r="1.253" transform="translate(5.01 18.371)" fill="#006ccc"/>
          <circle id="Ellipse_2066-4" data-name="Ellipse 2066" cx="1.253" cy="1.253" r="1.253" transform="translate(10.856 12.526)" fill="#006ccc"/>
          <circle id="Ellipse_2069-4" data-name="Ellipse 2069" cx="1.253" cy="1.253" r="1.253" transform="translate(10.856 18.371)" fill="#006ccc"/>
          <circle id="Ellipse_2070-4" data-name="Ellipse 2070" cx="1.253" cy="1.253" r="1.253" transform="translate(15.866 18.371)" fill="#006ccc"/>
          <circle id="Ellipse_2063-4" data-name="Ellipse 2063" cx="1.253" cy="1.253" r="1.253" transform="translate(5.01 6.68)" fill="#006ccc"/>
        </g>
      </g>
      <path id="Subtraction_129" data-name="Subtraction 129" d="M12841.5,10271a36.174,36.174,0,0,1-16.153-3.811,41.67,41.67,0,0,1-13.19-10.394,49.469,49.469,0,0,1-8.894-15.416,56.283,56.283,0,0,1,0-37.758,49.474,49.474,0,0,1,8.894-15.417,41.658,41.658,0,0,1,13.19-10.394,36.135,36.135,0,0,1,32.307,0,41.654,41.654,0,0,1,13.192,10.394,49.474,49.474,0,0,1,8.894,15.417,56.267,56.267,0,0,1,0,37.758,49.469,49.469,0,0,1-8.894,15.416,41.681,41.681,0,0,1-13.192,10.394A36.174,36.174,0,0,1,12841.5,10271Zm0-83c-6.545,0-12.7,3.589-17.323,10.106s-7.175,15.18-7.175,24.395,2.548,17.879,7.175,24.395,10.779,10.1,17.323,10.1,12.7-3.589,17.324-10.1,7.177-15.18,7.177-24.395-2.549-17.878-7.177-24.395S12848.043,10188,12841.5,10188Z" transform="translate(-11656.417 -8416)" fill="#f2b040"/>
      <text id="_2" data-name="₹" transform="translate(1121.583 1750)" fill="#f2b040" font-size="36" font-family="SegoeUI, Segoe UI" letter-spacing="0.004em"><tspan x="0" y="39">₹</tspan></text>
    </g>
  </g>
</svg>
