<svg xmlns="http://www.w3.org/2000/svg" width="120.564" height="71.372" viewBox="0 0 120.564 71.372">
  <g id="Group_21418" data-name="Group 21418" transform="translate(-1099 -1916.522)">
    <g id="Group_20997" data-name="Group 20997" transform="translate(1099.459 1916.521)">
      <path id="Path_13394" data-name="Path 13394" d="M74.541.684a1.36,1.36,0,0,1,1.684.343L82.151,8.27a1.36,1.36,0,0,0,1.328.471L96.9,5.966a1.36,1.36,0,0,1,1.631,1.215l.6,6.925a1.36,1.36,0,0,0,1.316,1.243l13.107.379a1.36,1.36,0,0,1,1.119,2.073l-3.424,5.557a1.36,1.36,0,0,0,.8,2.025l10.388,2.852a1.36,1.36,0,0,1,.373,2.457l-6.837,4.376a1.36,1.36,0,0,0,0,2.291l6.837,4.376a1.36,1.36,0,0,1-.373,2.457l-10.388,2.852a1.36,1.36,0,0,0-.8,2.025l3.424,5.557a1.36,1.36,0,0,1-1.119,2.073l-13.107.379a1.36,1.36,0,0,0-1.316,1.243l-.6,6.925A1.36,1.36,0,0,1,96.9,66.462L83.479,63.688a1.36,1.36,0,0,0-1.328.471L76.225,71.4a1.36,1.36,0,0,1-1.684.343L63.777,66.1a1.36,1.36,0,0,0-1.263,0L51.749,71.745a1.36,1.36,0,0,1-1.684-.343l-5.926-7.242a1.36,1.36,0,0,0-1.328-.471L29.394,66.462a1.36,1.36,0,0,1-1.631-1.215l-.6-6.925a1.36,1.36,0,0,0-1.316-1.243L12.744,56.7a1.36,1.36,0,0,1-1.119-2.073L15.05,49.07a1.36,1.36,0,0,0-.8-2.025L3.864,44.193a1.36,1.36,0,0,1-.373-2.457l6.837-4.376a1.36,1.36,0,0,0,0-2.291L3.491,30.692a1.36,1.36,0,0,1,.373-2.457l10.388-2.852a1.36,1.36,0,0,0,.8-2.025L11.625,17.8a1.36,1.36,0,0,1,1.119-2.073l13.107-.379a1.36,1.36,0,0,0,1.316-1.243l.6-6.925a1.36,1.36,0,0,1,1.631-1.215L42.811,8.74a1.36,1.36,0,0,0,1.328-.471l5.926-7.242A1.36,1.36,0,0,1,51.749.684L62.514,6.326a1.36,1.36,0,0,0,1.263,0Z" transform="translate(-3.322 -0.528)" fill="#1e1c57"/>
      <text id="Free" transform="translate(26.541 45.478)" fill="#acabd6" font-size="31" font-family="RoundedMplus1c-ExtraBold, 'Rounded Mplus \31 c'" font-weight="800" letter-spacing="0.004em"><tspan x="0" y="0">Free</tspan></text>
    </g>
  </g>
</svg>
