<svg xmlns="http://www.w3.org/2000/svg" width="186" height="30" viewBox="0 0 186 30">
  <g id="IIFL_Sec_" data-name="IIFL Sec " transform="translate(0 0)">
    <g id="Rectangle_5339" data-name="Rectangle 5339" transform="translate(0 0)" fill="#fff" stroke="#707070" stroke-width="1" opacity="0">
      <rect width="186" height="30" stroke="none"/>
      <rect x="0.5" y="0.5" width="185" height="29" fill="none"/>
    </g>
    <g id="Group_18189" data-name="Group 18189" transform="translate(1.5)">
      <path id="Path_12236" data-name="Path 12236" d="M38.093,25a15,15,0,1,1-15,15,15,15,0,0,1,15-15Z" transform="translate(-23.093 -25)" fill="#ef5713" fill-rule="evenodd"/>
      <path id="Path_12237" data-name="Path 12237" d="M40.561,44.046l.608-1.428H39.564l1,1.428Zm-.262-2.93.871,1.5.64-1.5Zm0,0,.889-1.818H39.255L40.3,41.115ZM35.406,39.3l1.919,3.735L39.255,39.3Zm1.919,3.735L35.3,46.942H39.33l-.962-1.88-1.042-2.029Zm.991-1.918.96,2.09.287-.587h0l.735-1.5Zm.96,2.09-.909,1.857h1.76l-.851-1.857Zm1.285.841-.434,1.017h1.144l-.71-1.017Zm-1.228,2.9h1.654l-.86-1.879-.8,1.879Zm1.791,3.487L39.33,46.942l-1.489,3.487Zm1.46-3.487h0l-.286-.409-1.027-1.47H43.9l-1.313,1.879ZM37.6,36.443l2.73-3.561H35.535L37.6,36.443Zm3.144,0H37.6L39.255,39.3l1.485-2.855ZM35.406,39.3l2.19-2.855H33.94L35.406,39.3Zm0,0H29.73l2.765,3.8,2.911-3.8ZM35.3,46.942l-1.807,3.487h4.348L35.3,46.942Zm-5.756,0H35.3l-2.8-3.849-2.952,3.849Zm7.086,6.329h3.282l-2.071-2.841L36.63,53.271Zm7.978-9.225L44,42.618h1.606l-1,1.428Zm.262-2.93-.87,1.5-.641-1.5Zm0,0L43.981,39.3h1.933L44.87,41.115ZM49.763,39.3l-1.919,3.735L45.915,39.3Zm-1.919,3.735,2.025,3.909H45.84l.962-1.88,1.043-2.029Zm-.991-1.918-.96,2.09-.287-.587h0l-.736-1.5Zm-.96,2.09.909,1.857h-1.76l.851-1.857Zm-1.285.841.434,1.017H43.9l.71-1.017Zm1.228,2.9H44.182l.86-1.879.8,1.879Zm-1.792,3.487,1.8-3.487,1.489,3.487Zm-1.46-9.314h.775L42.584,39.3h0l-.775,1.818h.775Zm0,3.947h0l.2-.339L44,42.618H41.17l1.415,2.445h0Zm0,5.366h0l1.6-3.487H40.987l1.232,2.691.365.8h0Zm4.989-13.985-2.731-3.561h4.791l-2.061,3.561Zm-3.144,0h3.144L45.915,39.3l-1.485-2.855ZM49.763,39.3l-2.19-2.855h3.656L49.763,39.3Zm0,0h5.676l-2.765,3.8-2.911-3.8Zm.106,7.644,1.807,3.487H47.328l2.541-3.487Zm5.756,0H49.869l2.8-3.849,2.952,3.849Zm-7.086,6.329H45.257l2.071-2.841,1.211,2.841ZM42.584,32.882h2.258l-2.258-2.944h0l-2.258,2.944h2.258Zm0,3.561h1.845l-1.845-3.561h0l-1.845,3.561h1.845Zm0,2.855h1.4l-.843-1.722-.554-1.132h0l-1.4,2.855h1.4Zm0,13.972h0l.377-.734,1.083-2.107h-2.92l1.46,2.841h0Zm0,3.668h0l2.673-3.667H39.912l2.673,3.667Z" transform="translate(-27.584 -28.438)" fill="#fff" fill-rule="evenodd"/>
      <path id="Path_12238" data-name="Path 12238" d="M147.959,41.79h-3.227a1.879,1.879,0,0,0-1.873,1.873V61.59h3.227a1.879,1.879,0,0,0,1.873-1.873V41.79Zm5.39,0H164.28V45.1a1.8,1.8,0,0,1-1.793,1.791h-5.858v2.54H163v3.309A1.8,1.8,0,0,1,161.2,54.53h-4.575v5.241a1.824,1.824,0,0,1-1.82,1.818h-3.28V43.608a1.824,1.824,0,0,1,1.82-1.818Zm-14.06,0h-3.227a1.879,1.879,0,0,0-1.873,1.873V61.59h3.227a1.879,1.879,0,0,0,1.873-1.873V41.79Zm32.918,0h-3.28a1.824,1.824,0,0,0-1.82,1.818V61.59h9.5A1.8,1.8,0,0,0,178.4,59.8V56.49h-6.195V41.79Z" transform="translate(-100.443 -36.689)" fill="#fff" fill-rule="evenodd"/>
      <path id="Path_12239" data-name="Path 12239" d="M513.651,64.379v0Z" transform="translate(-364.638 -52.413)" fill="#fff"/>
      <path id="Path_12240" data-name="Path 12240" d="M447.828,61.745h0s.005,0,0,0Z" transform="translate(-318.81 -50.583)" fill="#fff"/>
      <path id="Path_12241" data-name="Path 12241" d="M363.651,61.743h0Z" transform="translate(-260.201 -50.582)" fill="#fff"/>
      <path id="Path_12242" data-name="Path 12242" d="M363.655,61.745h0Z" transform="translate(-260.205 -50.583)" fill="#fff"/>
      <path id="Path_12243" data-name="Path 12243" d="M341.555,57.786h5.317a.71.71,0,0,1,.707.708v1.392a.71.71,0,0,1-.707.708h-4.591a.771.771,0,0,0-.769.769v2.506h5.361a.709.709,0,0,1,.707.707v1.393a.709.709,0,0,1-.707.707h-5.361v2.506a.772.772,0,0,0,.769.769h4.591a.709.709,0,0,1,.707.707v1.393a.709.709,0,0,1-.707.707h-5.317a2.86,2.86,0,0,1-2.851-2.852v-9.27a2.86,2.86,0,0,1,2.851-2.852Z" transform="translate(-242.833 -47.827)" fill="#fff" fill-rule="evenodd"/>
      <path id="Path_12244" data-name="Path 12244" d="M564.089,57.786h5.317a.71.71,0,0,1,.708.708v1.392a.71.71,0,0,1-.708.708h-4.592a.771.771,0,0,0-.769.769v2.506h5.361a.71.71,0,0,1,.708.707v1.393a.71.71,0,0,1-.708.707h-5.361v2.506a.771.771,0,0,0,.769.769h4.592a.71.71,0,0,1,.708.707v1.393a.71.71,0,0,1-.708.707h-5.317a2.86,2.86,0,0,1-2.851-2.852v-9.27a2.86,2.86,0,0,1,2.851-2.852Z" transform="translate(-397.771 -47.827)" fill="#fff" fill-rule="evenodd"/>
      <path id="Path_12245" data-name="Path 12245" d="M490.287,58.494V72.052a.709.709,0,0,0,.707.707h1.393a.71.71,0,0,0,.707-.707V58.494a.71.71,0,0,0-.707-.708h-1.393a.71.71,0,0,0-.707.708Z" transform="translate(-348.372 -47.827)" fill="#fff" fill-rule="evenodd"/>
      <path id="Path_12246" data-name="Path 12246" d="M451.494,58.494V72.052a.71.71,0,0,0,.707.708h1.393a.71.71,0,0,0,.708-.708V66.8h1.459l3.193,5.436a1.286,1.286,0,0,0,1.016.526H461.5c.564,0,.7-.555.436-1.011l-3.153-5.368a4.5,4.5,0,0,0,2.6-4.067V62.27a4.5,4.5,0,0,0-4.483-4.484h-4.7a.71.71,0,0,0-.707.708Zm2.808,5.53V60.56h2.564a1.732,1.732,0,0,1,0,3.464Z" transform="translate(-321.362 -47.827)" fill="#fff" fill-rule="evenodd"/>
      <path id="Path_12247" data-name="Path 12247" d="M410.307,58.494v8.813c0,.019,0,.037,0,.055v.159a5.255,5.255,0,0,0,5.239,5.239h0a5.255,5.255,0,0,0,5.239-5.239V58.494a.71.71,0,0,0-.707-.708h-1.393a.71.71,0,0,0-.707.708v8.813c0,.019,0,.037,0,.055v.169a2.441,2.441,0,0,1-2.434,2.434h0a2.441,2.441,0,0,1-2.434-2.434V58.494a.71.71,0,0,0-.708-.708h-1.392a.71.71,0,0,0-.708.708Z" transform="translate(-292.687 -47.827)" fill="#fff" fill-rule="evenodd"/>
      <path id="Path_12248" data-name="Path 12248" d="M514.846,57.786h-9.212a.71.71,0,0,0-.707.708v1.392a.71.71,0,0,0,.707.708h3.2V72.052a.71.71,0,0,0,.708.708h1.392a.71.71,0,0,0,.708-.708V60.594h3.2a.71.71,0,0,0,.707-.708V58.494a.71.71,0,0,0-.707-.708Z" transform="translate(-358.565 -47.827)" fill="#fff" fill-rule="evenodd"/>
      <path id="Path_12249" data-name="Path 12249" d="M545.378,58.494V72.052a.71.71,0,0,0,.708.707h1.392a.71.71,0,0,0,.708-.707V58.494a.71.71,0,0,0-.708-.708h-1.392a.71.71,0,0,0-.708.708Z" transform="translate(-386.728 -47.827)" fill="#fff" fill-rule="evenodd"/>
      <path id="Path_12250" data-name="Path 12250" d="M382.709,57.787h-2.814l-.043,0h-.141a6,6,0,0,0-1.366.151,4.884,4.884,0,0,0-1.388.551,4.327,4.327,0,0,0-1.227,1.1,5.379,5.379,0,0,0-.863,1.76,8.836,8.836,0,0,0-.326,2.523v2.809a8.66,8.66,0,0,0,.326,2.494,5.4,5.4,0,0,0,.863,1.753,4.442,4.442,0,0,0,1.225,1.1,4.888,4.888,0,0,0,1.388.568,5.783,5.783,0,0,0,1.368.161h.14l.044,0h2.814a.709.709,0,0,0,.707-.707V70.66a.709.709,0,0,0-.707-.707h-2.976a2.2,2.2,0,0,1-1.2-.245,2.066,2.066,0,0,1-.8-1.019,5.467,5.467,0,0,1-.314-2.012V63.869a6.343,6.343,0,0,1,.181-1.638,1.961,1.961,0,0,1,2.135-1.638h2.975a.709.709,0,0,0,.707-.707V58.494a.71.71,0,0,0-.707-.707Z" transform="translate(-267.784 -47.828)" fill="#fff" fill-rule="evenodd"/>
      <path id="Path_12251" data-name="Path 12251" d="M308.076,57.786h-3.714c-1.866,0-3.912.563-4.741,2.523a4.209,4.209,0,0,0,1.157,5.041,5.594,5.594,0,0,0,1.552.755c.591.186,1.187.349,1.791.48a8.883,8.883,0,0,1,.917.24,2.374,2.374,0,0,1,.656.324,1.625,1.625,0,0,1-.044,2.437,2.784,2.784,0,0,1-1.553.316h-4.075a.7.7,0,0,0-.68.72v1.418a.7.7,0,0,0,.68.72H304.1A8.672,8.672,0,0,0,306,72.527a5.008,5.008,0,0,0,1.734-.753,3.77,3.77,0,0,0,1.193-1.382,4.672,4.672,0,0,0,.449-2.149,4.491,4.491,0,0,0-.416-2.069,3.555,3.555,0,0,0-1.089-1.261,5.372,5.372,0,0,0-1.55-.744,19.455,19.455,0,0,1-3.32-.964,1.506,1.506,0,0,1,.044-2.261,2.509,2.509,0,0,1,1.354-.3h3.676a.7.7,0,0,0,.68-.72V58.507a.7.7,0,0,0-.68-.721Z" transform="translate(-215.365 -47.827)" fill="#fff" fill-rule="evenodd"/>
      <path id="Path_12252" data-name="Path 12252" d="M604.069,57.786h-3.714c-1.866,0-3.912.563-4.74,2.523a4.209,4.209,0,0,0,1.157,5.041,5.594,5.594,0,0,0,1.552.755c.591.186,1.188.349,1.792.48a8.872,8.872,0,0,1,.917.24,2.37,2.37,0,0,1,.656.324,1.625,1.625,0,0,1-.043,2.437,2.785,2.785,0,0,1-1.554.316h-4.075a.7.7,0,0,0-.68.72v1.418a.7.7,0,0,0,.68.72h4.075a8.67,8.67,0,0,0,1.905-.232,5,5,0,0,0,1.734-.753,3.767,3.767,0,0,0,1.193-1.382,4.671,4.671,0,0,0,.449-2.149,4.491,4.491,0,0,0-.416-2.069,3.55,3.55,0,0,0-1.088-1.261,5.375,5.375,0,0,0-1.55-.744,19.454,19.454,0,0,1-3.32-.964,1.506,1.506,0,0,1,.044-2.261,2.509,2.509,0,0,1,1.354-.3h3.676a.7.7,0,0,0,.68-.72V58.507a.7.7,0,0,0-.68-.721Z" transform="translate(-421.448 -47.827)" fill="#fff" fill-rule="evenodd"/>
    </g>
  </g>
</svg>
