<svg xmlns="http://www.w3.org/2000/svg" width="198.4" height="32" viewBox="0 0 198.4 32">
  <g id="IIFL_Sec_" data-name="IIFL Sec " transform="translate(-21.093 -19)">
    <g id="Rectangle_5339" data-name="Rectangle 5339" transform="translate(21.093 19)" fill="#fff" stroke="#707070" stroke-width="1" opacity="0">
      <rect width="198.4" height="32" stroke="none"/>
      <rect x="0.5" y="0.5" width="197.4" height="31" fill="none"/>
    </g>
    <g id="Group_18189" data-name="Group 18189" transform="translate(22.693 19)">
      <path id="Path_12236" data-name="Path 12236" d="M39.093,25a16,16,0,1,1-16,16A16,16,0,0,1,39.093,25Z" transform="translate(-23.093 -25)" fill="#ef5713" fill-rule="evenodd"/>
      <path id="Path_12237" data-name="Path 12237" d="M41.294,44.987l.65-1.523H40.23Zm-.28-3.126.928,1.6.683-1.6Zm0,0,.949-1.939H39.9l1.12,1.939ZM35.8,39.921,37.841,43.9,39.9,39.921ZM37.841,43.9l-2.16,4.17h4.3l-1.027-2L37.84,43.9ZM38.9,41.86l1.024,2.229.307-.627h0l.784-1.6Zm1.024,2.229-.97,1.981h1.878l-.907-1.981Zm1.371.9-.462,1.085h1.221L41.3,44.987Zm-1.31,3.09h1.76l-.912-2-.851,2Zm1.91,3.722-1.92-3.72L38.392,51.8Zm1.557-3.72h0l-.3-.44-1.1-1.568h2.8l-1.4,2Zm-5.322-11.2,2.912-3.8H35.933l2.2,3.8Zm3.36,0h-3.36l1.77,3.04,1.584-3.04ZM35.8,39.918l2.336-3.04H34.23l1.565,3.04Zm0,0H29.741l2.95,4.048,3.1-4.048Zm-.114,8.16-1.92,3.72h4.64l-2.71-3.72Zm-6.141,0h6.141L32.7,43.972l-3.149,4.106Zm7.558,6.75h3.5L38.392,51.8,37.1,54.828Zm8.51-9.84-.65-1.523H46.68Zm.28-3.126-.928,1.6-.683-1.6Zm0,0-.947-1.939h2.062l-1.12,1.939Zm5.219-1.939-2.046,3.984-2.058-3.984Zm-2.046,3.984,2.16,4.17h-4.3l1.026-2,1.12-2.165Zm-1.058-2.045-1.024,2.229-.307-.627h0l-.784-1.6Zm-1.024,2.229.97,1.981H46.073l.907-1.981Zm-1.371.9.462,1.085H44.857l.757-1.085Zm1.31,3.09H45.152l.917-2,.851,2ZM45.009,51.8l1.92-3.72,1.582,3.72Zm-1.557-9.934h.826l-.826-1.939h0l-.826,1.939Zm0,4.21h0l.208-.362,1.3-2.24H41.942l1.509,2.608h0Zm0,5.723h0l1.7-3.72H41.744l1.315,2.87.389.85h0Zm5.322-14.918-2.914-3.8h5.11l-2.2,3.8Zm-3.36,0h3.36L47,39.918l-1.584-3.04Zm5.69,3.04-2.336-3.04h3.9l-1.565,3.04Zm0,0h6.054l-2.95,4.048Zm.114,8.16,1.934,3.72h-4.64l2.71-3.72Zm6.141,0H51.222l2.992-4.106,3.149,4.106ZM49.8,54.828H46.3l2.21-3.03,1.291,3.03Zm-6.347-21.75h2.41l-2.41-3.141h0l-2.41,3.141h2.408Zm0,3.8h1.968l-1.968-3.8h0l-1.968,3.8Zm0,3.04h1.49l-.9-1.837-.59-1.208h0l-1.49,3.04h1.49Zm0,14.9h0l.4-.782,1.155-2.24H41.894l1.557,3.03h0Zm0,3.912h0L46.3,54.82H40.6l2.851,3.912Z" transform="translate(-27.453 -28.339)" fill="#fff" fill-rule="evenodd"/>
      <path id="Path_12238" data-name="Path 12238" d="M148.877,41.791h-3.442a2,2,0,0,0-2,2V62.911h3.442a2,2,0,0,0,2-2Zm5.749,0h11.659v3.536a1.92,1.92,0,0,1-1.92,1.91h-6.248v2.71h6.792v3.53a1.92,1.92,0,0,1-1.92,1.91h-4.88v5.59a1.946,1.946,0,0,1-1.941,1.939h-3.5V43.727a1.946,1.946,0,0,1,1.941-1.939Zm-15,0h-3.442a2,2,0,0,0-2,2V62.911h3.442a2,2,0,0,0,2-2Zm35.112,0h-3.5a1.946,1.946,0,0,0-1.941,1.936V62.911h10.136a1.92,1.92,0,0,0,1.92-1.91v-3.53h-6.608V41.791Z" transform="translate(-98.194 -36.351)" fill="#1e1c57" fill-rule="evenodd"/>
      <path id="Path_12239" data-name="Path 12239" d="M513.651,64.377Z" transform="translate(-354.704 -51.612)" fill="#1e1c57"/>
      <path id="Path_12240" data-name="Path 12240" d="M447.828,61.745Z" transform="translate(-310.209 -49.839)" fill="#1e1c57"/>
      <path id="Path_12241" data-name="Path 12241" d="M363.65,61.743Z" transform="translate(-253.304 -49.837)" fill="#1e1c57"/>
      <path id="Path_12242" data-name="Path 12242" d="M363.655,61.745Z" transform="translate(-253.308 -49.839)" fill="#1e1c57"/>
      <path id="Path_12243" data-name="Path 12243" d="M341.74,57.786h5.672a.757.757,0,0,1,.755.755v1.485a.757.757,0,0,1-.755.755h-4.9a.822.822,0,0,0-.821.821v2.674h5.718a.757.757,0,0,1,.755.755v1.485a.757.757,0,0,1-.755.755h-5.718v2.674a.822.822,0,0,0,.821.821h4.9a.757.757,0,0,1,.755.755v1.488a.757.757,0,0,1-.755.755H341.74a3.051,3.051,0,0,1-3.04-3.04V60.836a3.051,3.051,0,0,1,3.04-3.04Z" transform="translate(-236.444 -47.162)" fill="#1e1c57" fill-rule="evenodd"/>
      <path id="Path_12244" data-name="Path 12244" d="M564.279,57.786h5.672a.757.757,0,0,1,.755.755v1.485a.757.757,0,0,1-.755.755h-4.9a.822.822,0,0,0-.821.821v2.674h5.718a.757.757,0,0,1,.755.755v1.485a.757.757,0,0,1-.755.755h-5.719v2.674a.822.822,0,0,0,.821.821h4.9a.757.757,0,0,1,.755.755v1.488a.757.757,0,0,1-.755.755h-5.672a3.051,3.051,0,0,1-3.04-3.04V60.836a3.051,3.051,0,0,1,3.04-3.04Z" transform="translate(-386.873 -47.162)" fill="#1e1c57" fill-rule="evenodd"/>
      <path id="Path_12245" data-name="Path 12245" d="M490.287,58.541V73.008a.757.757,0,0,0,.755.755h1.485a.757.757,0,0,0,.755-.755V58.541a.757.757,0,0,0-.755-.755h-1.485a.757.757,0,0,0-.755.755Z" transform="translate(-338.911 -47.162)" fill="#1e1c57" fill-rule="evenodd"/>
      <path id="Path_12246" data-name="Path 12246" d="M451.494,58.544V73.011a.757.757,0,0,0,.755.755h1.485a.757.757,0,0,0,.755-.755v-5.6h1.555l3.406,5.8a1.371,1.371,0,0,0,1.085.562h1.635c.6,0,.75-.592.466-1.078l-3.36-5.726a4.8,4.8,0,0,0,2.771-4.355v-.048a4.8,4.8,0,0,0-4.782-4.782h-5.016a.757.757,0,0,0-.755.755Zm3,5.9v-3.7h2.734a1.848,1.848,0,0,1,0,3.694Z" transform="translate(-312.686 -47.165)" fill="#1e1c57" fill-rule="evenodd"/>
      <path id="Path_12247" data-name="Path 12247" d="M410.308,58.541V68.17a5.6,5.6,0,0,0,5.589,5.589h0a5.6,5.6,0,0,0,5.589-5.589V58.541a.757.757,0,0,0-.755-.755h-1.485a.757.757,0,0,0-.755.755V68.18a2.6,2.6,0,0,1-2.594,2.589h0a2.6,2.6,0,0,1-2.6-2.6V58.541a.757.757,0,0,0-.755-.755h-1.485a.757.757,0,0,0-.755.755Z" transform="translate(-284.847 -47.162)" fill="#1e1c57" fill-rule="evenodd"/>
      <path id="Path_12248" data-name="Path 12248" d="M515.506,57.786h-9.822a.757.757,0,0,0-.755.755v1.485a.757.757,0,0,0,.755.755H509.1V73.008a.757.757,0,0,0,.755.755h1.485a.757.757,0,0,0,.755-.755V60.781h3.416a.757.757,0,0,0,.755-.755V58.541a.757.757,0,0,0-.755-.755Z" transform="translate(-348.807 -47.162)" fill="#1e1c57" fill-rule="evenodd"/>
      <path id="Path_12249" data-name="Path 12249" d="M545.378,58.541V73.008a.757.757,0,0,0,.755.755h1.485a.757.757,0,0,0,.755-.755V58.541a.757.757,0,0,0-.755-.755h-1.485a.757.757,0,0,0-.755.755Z" transform="translate(-376.152 -47.162)" fill="#1e1c57" fill-rule="evenodd"/>
      <path id="Path_12250" data-name="Path 12250" d="M383.255,57.788h-3.2a6.4,6.4,0,0,0-1.458.16,5.21,5.21,0,0,0-1.48.589,4.616,4.616,0,0,0-1.309,1.17,5.739,5.739,0,0,0-.922,1.877,9.424,9.424,0,0,0-.347,2.691v3a9.233,9.233,0,0,0,.347,2.661,5.761,5.761,0,0,0,.92,1.87,4.737,4.737,0,0,0,1.306,1.179,5.211,5.211,0,0,0,1.48.606,6.167,6.167,0,0,0,1.459.173h3.2a.757.757,0,0,0,.755-.755V71.521a.757.757,0,0,0-.755-.755h-3.174a2.347,2.347,0,0,1-1.28-.261,2.2,2.2,0,0,1-.854-1.088,5.831,5.831,0,0,1-.334-2.147V64.276a6.767,6.767,0,0,1,.194-1.747,2.091,2.091,0,0,1,2.275-1.747h3.173a.757.757,0,0,0,.755-.755V58.54a.757.757,0,0,0-.755-.755Z" transform="translate(-260.667 -47.164)" fill="#1e1c57" fill-rule="evenodd"/>
      <path id="Path_12251" data-name="Path 12251" d="M308.675,57.8h-3.962a5.069,5.069,0,0,0-5.058,2.691,4.49,4.49,0,0,0,1.234,5.376,5.967,5.967,0,0,0,1.656.8c.63.2,1.267.371,1.91.512a9.469,9.469,0,0,1,.978.256,2.531,2.531,0,0,1,.7.346,1.733,1.733,0,0,1-.046,2.6,2.969,2.969,0,0,1-1.658.336h-4.347a.75.75,0,0,0-.726.768v1.512a.751.751,0,0,0,.727.768h4.347a9.249,9.249,0,0,0,2.032-.248,5.343,5.343,0,0,0,1.85-.8,4.021,4.021,0,0,0,1.28-1.475,4.985,4.985,0,0,0,.48-2.293,4.79,4.79,0,0,0-.443-2.206,3.793,3.793,0,0,0-1.162-1.346,5.731,5.731,0,0,0-1.654-.8,20.752,20.752,0,0,1-3.542-1.029,1.6,1.6,0,0,1,.046-2.411,2.675,2.675,0,0,1,1.44-.32h3.922a.75.75,0,0,0,.727-.768V58.555a.75.75,0,0,0-.726-.768Z" transform="translate(-209.782 -47.174)" fill="#1e1c57" fill-rule="evenodd"/>
      <path id="Path_12252" data-name="Path 12252" d="M604.666,57.8H600.7a5.067,5.067,0,0,0-5.056,2.691,4.49,4.49,0,0,0,1.234,5.376,5.965,5.965,0,0,0,1.656.8c.63.2,1.267.371,1.91.512a9.455,9.455,0,0,1,.978.256,2.526,2.526,0,0,1,.7.346,1.733,1.733,0,0,1-.046,2.6,2.971,2.971,0,0,1-1.658.336h-4.346a.75.75,0,0,0-.726.768v1.512a.75.75,0,0,0,.726.768h4.346a9.248,9.248,0,0,0,2.032-.248,5.338,5.338,0,0,0,1.85-.8,4.018,4.018,0,0,0,1.28-1.475,4.981,4.981,0,0,0,.48-2.293,4.79,4.79,0,0,0-.443-2.206,3.787,3.787,0,0,0-1.162-1.346,5.734,5.734,0,0,0-1.654-.8,20.753,20.753,0,0,1-3.542-1.029,1.6,1.6,0,0,1,.046-2.411,2.676,2.676,0,0,1,1.44-.32h3.922a.75.75,0,0,0,.726-.768V58.555a.75.75,0,0,0-.726-.768Z" transform="translate(-409.871 -47.174)" fill="#1e1c57" fill-rule="evenodd"/>
    </g>
  </g>
</svg>
