<svg xmlns="http://www.w3.org/2000/svg" width="103.705" height="68.162" viewBox="0 0 103.705 68.162">
  <path id="Path_13726" data-name="Path 13726" d="M4.216-25.669q3.107-2.467,2.832-2.284Q16-35.355,21.165-40.106a58.444,58.444,0,0,0,8.726-9.959,18,18,0,0,0,3.563-10.142,8.927,8.927,0,0,0-1.736-5.848,6.365,6.365,0,0,0-5.208-2.1,6.429,6.429,0,0,0-5.437,2.6q-1.964,2.6-1.964,7.355H4.033A25.878,25.878,0,0,1,7.368-71.172a19.371,19.371,0,0,1,8.315-7.675A26.253,26.253,0,0,1,27.15-81.314q10.873,0,16.4,5.574t5.528,14.528a28.494,28.494,0,0,1-6.67,18.137,98.231,98.231,0,0,1-16.995,16.31h24.67v12.7H4.216ZM103.9-66.238H75.393v12.609a13.279,13.279,0,0,1,5.117-3.289A19.494,19.494,0,0,1,87.637-58.2a19.64,19.64,0,0,1,11.376,3.107,18.284,18.284,0,0,1,6.624,8.041,27,27,0,0,1,2.1,10.69q0,10.69-6.03,16.949T84.713-13.152a29.809,29.809,0,0,1-12.7-2.513,19.456,19.456,0,0,1-8.315-6.99,20.248,20.248,0,0,1-3.2-10.325H75.759a8.221,8.221,0,0,0,2.65,4.706A8.342,8.342,0,0,0,84.165-26.4q4.294,0,6.4-2.741a11.707,11.707,0,0,0,2.1-7.31q0-4.477-2.193-6.853t-6.4-2.376a8.3,8.3,0,0,0-5.117,1.508,7.031,7.031,0,0,0-2.65,3.975H61.231V-79.943H103.9Z" transform="translate(-4.033 81.314)" fill="#5c2d91"/>
</svg>
