<svg xmlns="http://www.w3.org/2000/svg" width="28.025" height="26.175" viewBox="0 0 28.025 26.175">
  <path id="Path_12841" data-name="Path 12841" d="M1.233,26.175V25.39a13.551,13.551,0,0,0,5.129-5.8A15.917,15.917,0,0,0,7.9,13.116q0-3.307-1.121-3.307H3.923A4.5,4.5,0,0,1,1.065,8.071,5.4,5.4,0,0,1,0,4.708,4.2,4.2,0,0,1,1.513,1.177,5.587,5.587,0,0,1,5.044,0a6.027,6.027,0,0,1,3.7,1.261,8.511,8.511,0,0,1,2.662,3.531,12.81,12.81,0,0,1,.981,5.129A17.3,17.3,0,0,1,9.36,19.645,16.733,16.733,0,0,1,1.233,26.175Zm15.638,0V25.39a13.649,13.649,0,0,0,5.016-5.885,16.186,16.186,0,0,0,1.541-6.39q0-3.307-1.177-3.307-.841,0-1.738.028a5.691,5.691,0,0,1-1.121-.028,4.586,4.586,0,0,1-2.83-1.738A5.3,5.3,0,0,1,15.47,4.708a4.148,4.148,0,0,1,1.569-3.5A5.651,5.651,0,0,1,20.57,0a6.45,6.45,0,0,1,5.325,2.8,11.432,11.432,0,0,1,2.13,7.118A17.3,17.3,0,0,1,25,19.645,16.733,16.733,0,0,1,16.871,26.175Z" transform="translate(28.025 26.175) rotate(180)" fill="#f1f1f1"/>
</svg>
