<svg xmlns="http://www.w3.org/2000/svg" xmlns:xlink="http://www.w3.org/1999/xlink" width="39.544" height="37.228" viewBox="0 0 39.544 37.228">
  <defs>
    <linearGradient id="linear-gradient" x1="0.629" y1="-0.035" x2="0.56" y2="1.236" gradientUnits="objectBoundingBox">
      <stop offset="0" stop-color="#ffb983"/>
      <stop offset="1" stop-color="#ff8383"/>
    </linearGradient>
  </defs>
  <path id="Path_12839" data-name="Path 12839" d="M3.718-22.267v1.079a18.637,18.637,0,0,1,7.054,7.979,21.891,21.891,0,0,1,2.12,8.9q0,4.548-1.542,4.548H7.418a6.193,6.193,0,0,0-3.931,2.39A7.422,7.422,0,0,0,2.022,7.258,5.772,5.772,0,0,0,4.1,12.114,7.684,7.684,0,0,0,8.96,13.733,8.29,8.29,0,0,0,14.048,12a11.706,11.706,0,0,0,3.662-4.857A17.618,17.618,0,0,0,19.058.088,23.8,23.8,0,0,0,14.9-13.286,23.013,23.013,0,0,0,3.718-22.267Zm21.507,0v1.079a18.773,18.773,0,0,1,6.9,8.094,22.262,22.262,0,0,1,2.12,8.788q0,4.548-1.619,4.548Q31.47.243,30.236.2a7.828,7.828,0,0,0-1.542.039A6.308,6.308,0,0,0,24.8,2.632a7.294,7.294,0,0,0-1.5,4.625,5.705,5.705,0,0,0,2.158,4.818,7.772,7.772,0,0,0,4.857,1.657,8.871,8.871,0,0,0,7.323-3.854A15.722,15.722,0,0,0,40.566.088,23.8,23.8,0,0,0,36.4-13.286,23.013,23.013,0,0,0,25.225-22.267Z" transform="translate(-1.522 22.995)" stroke="rgba(0,0,0,0)" stroke-width="1" fill="url(#linear-gradient)"/>
</svg>
