<svg xmlns="http://www.w3.org/2000/svg" width="82.999" height="97" viewBox="0 0 82.999 97">
  <path id="Subtraction_129" data-name="Subtraction 129" d="M12841.5,10271a36.174,36.174,0,0,1-16.153-3.811,41.67,41.67,0,0,1-13.19-10.394,49.469,49.469,0,0,1-8.894-15.416,56.283,56.283,0,0,1,0-37.758,49.474,49.474,0,0,1,8.894-15.417,41.658,41.658,0,0,1,13.19-10.394,36.135,36.135,0,0,1,32.307,0,41.654,41.654,0,0,1,13.192,10.394,49.474,49.474,0,0,1,8.894,15.417,56.267,56.267,0,0,1,0,37.758,49.469,49.469,0,0,1-8.894,15.416,41.681,41.681,0,0,1-13.192,10.394A36.174,36.174,0,0,1,12841.5,10271Zm0-83c-6.545,0-12.7,3.589-17.323,10.106s-7.175,15.18-7.175,24.395,2.548,17.879,7.175,24.395,10.779,10.1,17.323,10.1,12.7-3.589,17.324-10.1,7.177-15.18,7.177-24.395-2.549-17.878-7.177-24.395S12848.043,10188,12841.5,10188Z" transform="translate(-12800.001 -10173.999)" fill="#f2b040"/>
</svg>
