<svg xmlns="http://www.w3.org/2000/svg" width="30" height="30.001" viewBox="0 0 30 30.001">
  <path id="Subtraction_130" data-name="Subtraction 130" d="M27,30H3a3,3,0,0,1-3-3V3A3,3,0,0,1,3,0H27a3,3,0,0,1,3,3V27A3,3,0,0,1,27,30ZM15.312,7.5c-.069,0-6.886.005-8.578.462A2.759,2.759,0,0,0,4.793,9.913a29.143,29.143,0,0,0-.458,5.319,29.143,29.143,0,0,0,.458,5.319A2.761,2.761,0,0,0,6.734,22.5c1.692.456,8.509.462,8.578.462s6.885-.005,8.578-.462a2.759,2.759,0,0,0,1.94-1.954,29.087,29.087,0,0,0,.459-5.319,29.087,29.087,0,0,0-.459-5.319A2.756,2.756,0,0,0,23.89,7.96C22.2,7.5,15.38,7.5,15.312,7.5Zm-2.245,11V11.967L18.8,15.232,13.068,18.5Z" transform="translate(0 0.001)" fill="#fff"/>
</svg>
